<?xml version="1.0" encoding="utf-8"?>
<!-- Generator: Adobe Illustrator 23.0.4, SVG Export Plug-In . SVG Version: 6.00 Build 0)  -->
<svg version="1.1" id="Layer_1" xmlns="http://www.w3.org/2000/svg" xmlns:xlink="http://www.w3.org/1999/xlink" x="0px" y="0px"
	 viewBox="0 0 113.39 113.39" style="enable-background:new 0 0 113.39 113.39;" xml:space="preserve">
<style type="text/css">
	.st0{fill:none;stroke:#000000;stroke-width:2;stroke-miterlimit:10;}
	.st1{fill:none;stroke:#000000;stroke-width:2;stroke-linecap:round;stroke-miterlimit:10;}
	.st2{fill:#FFFFFF;stroke:#000000;stroke-width:2;stroke-linecap:round;stroke-miterlimit:10;}
	.st3{fill:#FFFFFF;stroke:#000000;stroke-width:2;stroke-miterlimit:10;}
	.st4{fill:#FFFFFF;}
	.st5{fill:#FFFFFF;stroke:#050000;stroke-width:2;stroke-miterlimit:10;}
	.st6{fill:#FFFFFF;stroke:#000000;stroke-width:2;stroke-linecap:round;stroke-linejoin:bevel;stroke-miterlimit:10;}
	.st7{fill:none;stroke:#000000;stroke-linecap:round;stroke-miterlimit:10;}
	.st8{fill:none;stroke:#000000;stroke-linecap:round;stroke-miterlimit:10;stroke-dasharray:1.9526,3.9052;}
	.st9{fill:none;stroke:#050000;stroke-width:2;stroke-linejoin:round;stroke-miterlimit:10;}
	.st10{fill:#FFFFFF;stroke:#050000;stroke-width:2;stroke-linecap:round;stroke-miterlimit:10;}
	.st11{fill:none;stroke:#050000;stroke-width:2;stroke-miterlimit:10;}
	.st12{fill:#FFFFFF;stroke:#050000;stroke-width:2;stroke-linejoin:round;stroke-miterlimit:10;}
</style>
<path class="st9" d="M69.66,69.22c0,0-5.96,4.67-5.77,8.97c0.28,6.6,5.77,8.79,5.77,8.79c0,3.78-6.25,6.84-13.97,6.84
	s-13.97-3.06-13.97-6.84c0,0,5.49-2.19,5.77-8.79c0.18-4.3-5.77-8.97-5.77-8.97l2.49,2.35c-5.53-4.51-9.4-12-8.38-20.4
	c5.5,1.41,12.25,2.21,19.75,2.21c7.53,0,14.47-0.85,19.98-2.27l-0.01-0.03c0.63,5.08-0.52,9.83-2.75,13.79
	c-1.58,2.81-3.7,5.22-6.11,7.07"/>
<path class="st5" d="M67.93,36.28c-0.85,0.33-1.77,0.52-2.74,0.52c-4.14,0-7.49-3.35-7.49-7.49c0-0.85,0.15-1.66,0.41-2.41
	c-0.84-0.24-1.65-0.36-2.41-0.36c-5.32,0-13.1,5.48-16.64,22.75c-0.18,0.86-0.29,1.7-0.34,2.54c4.92,1,10.63,1.56,16.87,1.56
	c6.28,0,12.13-0.6,17.1-1.62c-0.06-0.82-0.17-1.64-0.34-2.48C71.22,43.85,69.68,39.57,67.93,36.28z"/>
<path class="st10" d="M49.99,32.32c0,0-2.25,2.32-3.02,4.64"/>
</svg>
