<?xml version="1.0" encoding="utf-8"?>
<!-- Generator: Adobe Illustrator 23.0.4, SVG Export Plug-In . SVG Version: 6.00 Build 0)  -->
<svg version="1.1" id="Layer_1" xmlns="http://www.w3.org/2000/svg" xmlns:xlink="http://www.w3.org/1999/xlink" x="0px" y="0px"
	 viewBox="0 0 113.39 113.39" style="enable-background:new 0 0 113.39 113.39;" xml:space="preserve">
<style type="text/css">
	.st0{fill:none;stroke:#000000;stroke-width:2;stroke-miterlimit:10;}
	.st1{fill:none;stroke:#000000;stroke-width:2;stroke-linecap:round;stroke-miterlimit:10;}
	.st2{fill:#FFFFFF;stroke:#000000;stroke-width:2;stroke-linecap:round;stroke-miterlimit:10;}
	.st3{fill:#FFFFFF;stroke:#000000;stroke-width:2;stroke-miterlimit:10;}
	.st4{fill:#FFFFFF;}
	.st5{fill:#FFFFFF;stroke:#050000;stroke-width:2;stroke-miterlimit:10;}
	.st6{fill:#FFFFFF;stroke:#000000;stroke-width:2;stroke-linecap:round;stroke-linejoin:bevel;stroke-miterlimit:10;}
	.st7{fill:none;stroke:#000000;stroke-linecap:round;stroke-miterlimit:10;}
	.st8{fill:none;stroke:#000000;stroke-linecap:round;stroke-miterlimit:10;stroke-dasharray:1.9526,3.9052;}
	.st9{fill:none;stroke:#050000;stroke-width:2;stroke-linejoin:round;stroke-miterlimit:10;}
	.st10{fill:#FFFFFF;stroke:#050000;stroke-width:2;stroke-linecap:round;stroke-miterlimit:10;}
	.st11{fill:none;stroke:#050000;stroke-width:2;stroke-miterlimit:10;}
	.st12{fill:#FFFFFF;stroke:#050000;stroke-width:2;stroke-linejoin:round;stroke-miterlimit:10;}
</style>
<path class="st1" d="M97.72,36.73V91.9c0,0-1.98,5.44-6.89,5.44c-2.54,0-12.47,0-21.44,0c-9.67,0-43.98,0-46.84,0
	c-4.91,0-6.89-5.44-6.89-5.44V36.73"/>
<polyline class="st1" points="104.52,36.73 53.54,36.73 59.84,36.73 8.87,36.73 "/>
<path class="st1" d="M15.66,46.44c2.67-1.79,6.48-3.65,10.71-3.05c4.79,0.68,5.88,3.93,10.24,3.92c4.71,0,5.95-3.78,10.9-4.36
	c4.67-0.54,5.24,3.36,10.24,3.49c5.37,0.14,6.37-3.83,11.55-3.49c4.64,0.3,4.88,3.55,9.37,3.7c4.87,0.17,6.44-3.56,11.33-3.49
	c3.31,0.05,5.99,1.81,7.71,3.27"/>
<path class="st5" d="M67.76,52.6c-2.67-1.7-8.34-1.44-15.65,6.11c-5.21,5.38-3.53,13.82,1.09,16.76c4.62,2.94,12.98,0.89,15.65-6.11
	C72.59,59.55,70.43,54.3,67.76,52.6z"/>
<path class="st5" d="M82.46,66.64c-3.15-0.29-8.07,2.54-11.11,12.6c-2.17,7.17,3.19,13.91,8.64,14.41
	c5.46,0.5,11.95-5.16,11.11-12.6C89.93,70.61,85.61,66.93,82.46,66.64z"/>
<path class="st5" d="M26.69,70.61c-2.53,1.91-4.25,7.32,0.27,16.8c3.23,6.76,11.72,8.13,16.09,4.83c4.37-3.31,5.36-11.86-0.27-16.8
	C34.89,68.5,29.22,68.69,26.69,70.61z"/>
<path class="st0" d="M39.65,9.95c1.9,1.77,3.9,4.2,3.42,6.56c-0.72,3.51-6.37,3.96-7.13,7.41c-0.33,1.52,0.23,3.86,4.28,7.41"/>
<path class="st0" d="M58.59,9.95c1.9,1.77,3.9,4.2,3.42,6.56c-0.72,3.51-6.37,3.96-7.13,7.41c-0.33,1.52,0.23,3.86,4.28,7.41"/>
<path class="st0" d="M77.52,9.95c1.9,1.77,3.9,4.2,3.42,6.56c-0.72,3.51-6.37,3.96-7.13,7.41c-0.33,1.52,0.23,3.86,4.28,7.41"/>
</svg>
