<?xml version="1.0" encoding="utf-8"?>
<!-- Generator: Adobe Illustrator 23.0.4, SVG Export Plug-In . SVG Version: 6.00 Build 0)  -->
<svg version="1.1" id="Layer_1" xmlns="http://www.w3.org/2000/svg" xmlns:xlink="http://www.w3.org/1999/xlink" x="0px" y="0px"
	 viewBox="0 0 113.39 113.39" style="enable-background:new 0 0 113.39 113.39;" xml:space="preserve">
<style type="text/css">
	.st0{fill:none;stroke:#000000;stroke-width:2;stroke-miterlimit:10;}
	.st1{fill:none;stroke:#000000;stroke-width:2;stroke-linecap:round;stroke-miterlimit:10;}
	.st2{fill:#FFFFFF;stroke:#000000;stroke-width:2;stroke-linecap:round;stroke-miterlimit:10;}
	.st3{fill:#FFFFFF;stroke:#000000;stroke-width:2;stroke-miterlimit:10;}
	.st4{fill:#FFFFFF;}
	.st5{fill:#FFFFFF;stroke:#050000;stroke-width:2;stroke-miterlimit:10;}
	.st6{fill:#FFFFFF;stroke:#000000;stroke-width:2;stroke-linecap:round;stroke-linejoin:bevel;stroke-miterlimit:10;}
	.st7{fill:none;stroke:#000000;stroke-linecap:round;stroke-miterlimit:10;}
	.st8{fill:none;stroke:#000000;stroke-linecap:round;stroke-miterlimit:10;stroke-dasharray:1.9526,3.9052;}
	.st9{fill:none;stroke:#050000;stroke-width:2;stroke-linejoin:round;stroke-miterlimit:10;}
	.st10{fill:#FFFFFF;stroke:#050000;stroke-width:2;stroke-linecap:round;stroke-miterlimit:10;}
	.st11{fill:none;stroke:#050000;stroke-width:2;stroke-miterlimit:10;}
	.st12{fill:#FFFFFF;stroke:#050000;stroke-width:2;stroke-linejoin:round;stroke-miterlimit:10;}
</style>
<path class="st1" d="M96.72,36.73V91.9c0,0-1.98,5.44-6.89,5.44c-2.54,0-12.47,0-21.44,0c-9.67,0-43.98,0-46.84,0
	c-4.91,0-6.89-5.44-6.89-5.44V36.73"/>
<polyline class="st1" points="103.52,36.73 52.54,36.73 58.84,36.73 7.87,36.73 "/>
<path class="st1" d="M14.66,46.44c2.67-1.79,6.48-3.65,10.71-3.05c4.79,0.68,5.88,3.93,10.24,3.92c4.71,0,5.95-3.78,10.9-4.36
	c4.67-0.54,5.24,3.36,10.24,3.49c5.37,0.14,6.37-3.83,11.55-3.49c4.64,0.3,4.88,3.55,9.37,3.7c4.87,0.17,6.44-3.56,11.33-3.49
	c3.31,0.05,5.99,1.81,7.71,3.27"/>
<path class="st5" d="M54.27,55.32c-3.1,0.63-7,4.76-7.01,15.27c-0.01,7.49,7.06,12.4,12.43,11.3s9.95-8.38,7.01-15.27
	C62.57,56.96,57.37,54.68,54.27,55.32z"/>
<path class="st5" d="M84.54,68.32c-2.88-1.33-8.46-0.31-14.69,8.14c-4.45,6.03-1.66,14.17,3.31,16.47
	c4.97,2.3,12.98-0.85,14.69-8.14C90.26,74.57,87.42,69.65,84.54,68.32z"/>
<path class="st5" d="M41.56,69.11c-2.88-1.33-8.46-0.31-14.69,8.14c-4.45,6.03-1.66,14.17,3.31,16.47
	c4.97,2.3,12.98-0.85,14.69-8.14C47.28,75.35,44.44,70.44,41.56,69.11z"/>
<g>
	<g>
		<line class="st7" x1="96.72" y1="54.28" x2="95.72" y2="54.28"/>
		<line class="st8" x1="91.82" y1="54.28" x2="17.62" y2="54.28"/>
		<line class="st7" x1="15.66" y1="54.28" x2="14.66" y2="54.28"/>
	</g>
</g>
</svg>
