<?xml version="1.0" encoding="utf-8"?>
<!-- Generator: Adobe Illustrator 23.0.4, SVG Export Plug-In . SVG Version: 6.00 Build 0)  -->
<svg version="1.1" id="Layer_1" xmlns="http://www.w3.org/2000/svg" xmlns:xlink="http://www.w3.org/1999/xlink" x="0px" y="0px"
	 viewBox="0 0 113.39 113.39" style="enable-background:new 0 0 113.39 113.39;" xml:space="preserve">
<style type="text/css">
	.st0{fill:none;stroke:#000000;stroke-width:2;stroke-miterlimit:10;}
	.st1{fill:none;stroke:#000000;stroke-width:2;stroke-linecap:round;stroke-miterlimit:10;}
	.st2{fill:#FFFFFF;stroke:#000000;stroke-width:2;stroke-linecap:round;stroke-miterlimit:10;}
	.st3{fill:#FFFFFF;stroke:#000000;stroke-width:2;stroke-miterlimit:10;}
	.st4{fill:#FFFFFF;}
	.st5{fill:#FFFFFF;stroke:#050000;stroke-width:2;stroke-miterlimit:10;}
	.st6{fill:#FFFFFF;stroke:#000000;stroke-width:2;stroke-linecap:round;stroke-linejoin:bevel;stroke-miterlimit:10;}
	.st7{fill:none;stroke:#000000;stroke-linecap:round;stroke-miterlimit:10;}
	.st8{fill:none;stroke:#000000;stroke-linecap:round;stroke-miterlimit:10;stroke-dasharray:1.9526,3.9052;}
	.st9{fill:none;stroke:#050000;stroke-width:2;stroke-linejoin:round;stroke-miterlimit:10;}
	.st10{fill:#FFFFFF;stroke:#050000;stroke-width:2;stroke-linecap:round;stroke-miterlimit:10;}
	.st11{fill:none;stroke:#050000;stroke-width:2;stroke-miterlimit:10;}
	.st12{fill:#FFFFFF;stroke:#050000;stroke-width:2;stroke-linejoin:round;stroke-miterlimit:10;}
</style>
<path class="st1" d="M100.92,44.66v30.23c0,0-1.09,2.98-3.78,2.98c-1.39,0-6.83,0-11.75,0c-5.3,0-24.1,0-25.66,0
	c-2.69,0-3.78-2.98-3.78-2.98V44.66"/>
<polyline class="st1" points="104.65,44.66 76.72,44.66 80.17,44.66 52.24,44.66 "/>
<path class="st1" d="M55.96,49.98c1.46-0.98,3.55-2,5.87-1.67c2.62,0.37,3.22,2.15,5.61,2.15c2.58,0,3.26-2.07,5.97-2.39
	c2.56-0.3,2.87,1.84,5.61,1.91c2.94,0.08,3.49-2.1,6.33-1.91c2.54,0.17,2.67,1.94,5.13,2.03c2.67,0.09,3.53-1.95,6.21-1.91
	c1.82,0.03,3.28,0.99,4.23,1.79"/>
<path class="st1" d="M84.51,53.35c-1.46-0.93-4.57-0.79-8.57,3.35c-2.85,2.95-1.94,7.57,0.6,9.19c2.53,1.61,7.11,0.49,8.57-3.35
	C87.15,57.16,85.97,54.28,84.51,53.35z"/>
<path class="st1" d="M92.56,61.04c-1.73-0.16-4.42,1.39-6.09,6.9c-1.19,3.93,1.75,7.62,4.74,7.89s6.55-2.83,6.09-6.9
	C96.66,63.22,94.29,61.2,92.56,61.04z"/>
<path class="st1" d="M62.01,63.21c-1.38,1.05-2.33,4.01,0.15,9.2c1.77,3.7,6.42,4.46,8.82,2.64c2.39-1.81,2.93-6.5-0.15-9.2
	C66.5,62.06,63.39,62.17,62.01,63.21z"/>
<path class="st0" d="M20.29,55.06c1.9,1.77,3.9,4.2,3.42,6.56c-0.72,3.51-6.37,3.96-7.13,7.41c-0.33,1.52,0.23,3.86,4.28,7.41"/>
<path class="st0" d="M30.38,55.63c1.9,1.77,3.9,4.2,3.42,6.56c-0.72,3.51-6.37,3.96-7.13,7.41c-0.33,1.52,0.23,3.86,4.28,7.41"/>
<path class="st0" d="M40.42,55.06c1.9,1.77,3.9,4.2,3.42,6.56c-0.72,3.51-6.37,3.96-7.13,7.41c-0.33,1.52,0.23,3.86,4.28,7.41"/>
<rect x="11.84" y="81.08" class="st5" width="92.81" height="9.87"/>
<g>
	<g>
		<line class="st1" x1="14.52" y1="44.66" x2="45.07" y2="44.66"/>
		<g>
			<polygon points="40.43,50.38 39.47,49.36 44.53,44.66 39.47,39.96 40.43,38.93 46.59,44.66 			"/>
		</g>
	</g>
</g>
</svg>
