<?xml version="1.0" encoding="utf-8"?>
<!-- Generator: Adobe Illustrator 23.0.4, SVG Export Plug-In . SVG Version: 6.00 Build 0)  -->
<svg version="1.1" id="Layer_1" xmlns="http://www.w3.org/2000/svg" xmlns:xlink="http://www.w3.org/1999/xlink" x="0px" y="0px"
	 viewBox="0 0 113.39 113.39" style="enable-background:new 0 0 113.39 113.39;" xml:space="preserve">
<style type="text/css">
	.st0{fill:none;stroke:#000000;stroke-width:2;stroke-miterlimit:10;}
	.st1{fill:none;stroke:#000000;stroke-width:2;stroke-linecap:round;stroke-miterlimit:10;}
	.st2{fill:#FFFFFF;stroke:#000000;stroke-width:2;stroke-linecap:round;stroke-miterlimit:10;}
	.st3{fill:#FFFFFF;stroke:#000000;stroke-width:2;stroke-miterlimit:10;}
	.st4{fill:#FFFFFF;}
	.st5{fill:#FFFFFF;stroke:#050000;stroke-width:2;stroke-miterlimit:10;}
	.st6{fill:#FFFFFF;stroke:#000000;stroke-width:2;stroke-linecap:round;stroke-linejoin:bevel;stroke-miterlimit:10;}
	.st7{fill:none;stroke:#000000;stroke-linecap:round;stroke-miterlimit:10;}
	.st8{fill:none;stroke:#000000;stroke-linecap:round;stroke-miterlimit:10;stroke-dasharray:1.9526,3.9052;}
	.st9{fill:none;stroke:#050000;stroke-width:2;stroke-linejoin:round;stroke-miterlimit:10;}
	.st10{fill:#FFFFFF;stroke:#050000;stroke-width:2;stroke-linecap:round;stroke-miterlimit:10;}
	.st11{fill:none;stroke:#050000;stroke-width:2;stroke-miterlimit:10;}
	.st12{fill:#FFFFFF;stroke:#050000;stroke-width:2;stroke-linejoin:round;stroke-miterlimit:10;}
</style>
<circle class="st1" cx="56.69" cy="57.71" r="33.61"/>
<circle class="st1" cx="56.69" cy="57.71" r="29.53"/>
<rect x="31.43" y="55.34" class="st1" width="3.65" height="3.65"/>
<rect x="79.67" y="55.34" class="st1" width="3.65" height="3.65"/>
<rect x="54.87" y="79.67" class="st1" width="3.65" height="3.65"/>
<rect x="54.87" y="31.09" class="st1" width="3.65" height="3.65"/>
<path class="st5" d="M56.69,59.98L56.69,59.98c-0.88,0-1.59-0.72-1.59-1.59V36.34c0-0.88,0.72-1.59,1.59-1.59h0
	c0.88,0,1.59,0.72,1.59,1.59v22.05C58.29,59.26,57.57,59.98,56.69,59.98z"/>
<path class="st5" d="M55.13,59.47l-0.23-0.6c-0.28-0.74,0.1-1.57,0.83-1.84l13.88-5.22c0.74-0.28,1.57,0.1,1.84,0.83l0.23,0.6
	c0.28,0.74-0.1,1.57-0.83,1.84L56.98,60.3C56.24,60.58,55.41,60.21,55.13,59.47z"/>
</svg>
