<svg xmlns="http://www.w3.org/2000/svg" xmlns:xlink="http://www.w3.org/1999/xlink" xml:space="preserve" version="1.1" style="shape-rendering:geometricPrecision;text-rendering:geometricPrecision;image-rendering:optimizeQuality;" viewBox="0 0 50000 50000" x="0px" y="0px" fill-rule="evenodd" clip-rule="evenodd"><defs><style type="text/css">
   
    .fil0 {fill:black;fill-rule:nonzero}
   
  </style></defs><g><path class="fil0" d="M8943.77 34183.94l11.28 13.15c1118.07,1198.55 2001.45,2413 2525.77,3407.53 611.09,1159.1 741,2107.47 244.96,2570.2 -495.1,461.87 -1431.6,266.04 -2545.39,-423.91 -954,-590.93 -2100.15,-1552.02 -3213.93,-2744.05l-0.53 0.54 -11.28 -13.16c-1118.07,-1198.55 -2001.45,-2412.99 -2525.77,-3407.52 -611.09,-1159.11 -741.01,-2107.45 -244.95,-2570.2 495.1,-461.87 1431.59,-266.05 2545.39,423.9 954,590.93 2100.14,1552.03 3213.92,2744.06l0.53 -0.54zm13170.98 706.09c-637.32,1076.11 -1340.81,2030.53 -1979.64,2693.75 -803.04,833.68 -1576.2,1237.66 -2141.14,962.95l-5.61 -3.74 -11.6 -5.81c-581.14,-297.37 -725.58,-1182 -493.23,-2384.59 197.75,-1023.51 656.38,-2338.98 1326.29,-3716.77 52.81,-108.62 119.9,-242.46 201.49,-401.91 748.29,-1462.33 1589.34,-2706.42 2344.13,-3535.59 881.77,-968.63 1729.05,-1413.27 2332.75,-1104.37 523.32,267.79 697.62,989.53 564.68,1985.6 -94.99,711.84 -340.82,1603.24 -717.37,2578.48 1062.86,107.17 2376.7,399.44 3755.33,865.47l3.76 1.25c1551.39,524.72 2904.74,1175.27 3838.6,1802.81 1088.2,731.23 1652.69,1504.62 1435.54,2146.66 -217.16,642.07 -1134.56,914 -2442.19,834.62 -1122.89,-68.17 -2593.98,-373 -4146.96,-898.26 -1551.43,-524.75 -2904.82,-1175.31 -3838.7,-1802.83l-26.13 -17.72zm409.92 -2973.78c417.26,-1023.14 685.83,-1949.24 780.72,-2660.3 77.2,-578.55 66.12,-951.64 -51.61,-1011.89 -169.49,-86.72 -612.07,262.94 -1190.54,898.4 -705.42,774.93 -1495.13,1944.81 -2201.82,3325.86 -52.81,103.21 -116.39,231.28 -190.25,383.2 -633.48,1302.85 -1064.71,2534.07 -1247.63,3480.84 -147.72,764.54 -164.12,1272.78 -14.19,1353.67l0.32 -0.65c139.63,67.9 528.12,-236.84 1036.36,-764.46 610.56,-633.88 1292.84,-1569.82 1911.44,-2631.79 -559.08,-534.27 -808.69,-1065.29 -652.15,-1528.06 180.79,-534.48 846.91,-812.47 1819.35,-844.82zm-7734.59 -20675.49c38.52,130.2 76.26,262.77 113.09,397.5 50.12,183.39 96.35,361.36 138.38,533.28 390.08,1595.38 596.02,3110.44 589.15,4245.65 -7.71,1273.91 -317.35,2149.83 -968.15,2322.55 -641.42,170.23 -1355.74,-411.75 -1999.26,-1496.33 -492.06,-829.23 -983.59,-1985.82 -1385.62,-3316.02 -31.92,17.47 -63.62,34.57 -95.1,51.33 -1157.21,615.76 -2104.96,749.85 -2568.88,256.36 -464.42,-494.03 -272.74,-1431.3 412.59,-2547.21 352.43,-573.85 838.44,-1217.84 1427.99,-1883.23 -63.77,-786.58 -45.48,-1464.91 63.1,-1972.05 145.65,-680.25 462.89,-1112.75 971.74,-1205.13 341.42,-62.01 684.94,47.38 1019,302.67 157.55,120.39 316.2,277.1 473.81,466.14 778.83,-627.07 1530.55,-1133.43 2187.14,-1482.8 1157.21,-615.77 2104.96,-749.85 2568.88,-256.36 464.42,494.02 272.74,1431.3 -412.59,2547.21 -553.93,901.96 -1437.83,1977.2 -2535.27,3036.44zm-2667.61 2172.97c391.18,1353.11 879.05,2524.39 1364.7,3342.85 414.47,698.54 756.46,1104.73 931.95,1058.15 169.25,-44.9 251.66,-579.06 256.62,-1401.29 6.43,-1060.21 -190.38,-2493.37 -562.95,-4017.21 -37.07,-151.6 -73.9,-295.52 -110.41,-431.56 -644.95,563.9 -1283.97,1053.53 -1879.91,1449.06zm130.24 -5401.29c-111.5,-133.8 -220.36,-242.06 -325.09,-322.09 -117.73,-89.97 -210.15,-133.74 -269.97,-122.89 -74.68,13.56 -143.65,181.54 -204.03,463.62 -47.92,223.8 -74,494.39 -79.39,803.32 129.12,-127.68 261.41,-255.26 396.7,-382.47 160.47,-150.84 321.25,-297.41 481.78,-439.49zm24208.01 20830.67c209.53,133.07 397.29,227 557.49,277.2 123.33,38.64 200.7,52.46 221.77,37.12 51.62,-37.56 52.73,-213.75 11.39,-493.95 -32.12,-217.59 -97.16,-469.1 -192.49,-747.76 -196.36,322.46 -396.54,632.35 -598.16,927.39zm1204.51 -1989.18c282.11,637.64 465.44,1209.01 533.62,1671 94.93,643.28 -26.9,1134.52 -397.14,1403.96 -286.6,208.56 -650.51,236.06 -1068.12,105.19 -251.42,-78.77 -532.05,-219.28 -832.76,-414.14 -427.95,562.03 -852.26,1047.64 -1250,1434.43 -939.59,913.75 -1812.5,1306.5 -2395.96,961.63 -583.13,-344.68 -659.9,-1298.33 -312.62,-2561.46 211.86,-770.52 575.77,-1686.8 1066.4,-2656.97 -66.34,-84.08 -138.94,-177.47 -217.88,-280.36 -93.15,-121.45 -203.13,-269.19 -330.37,-444.02 -967.34,-1329.24 -1697.41,-2641.36 -2095.7,-3688.11 -465.78,-1224.08 -479.55,-2180.88 69.07,-2580.13 548.33,-399.08 1454.56,-91.48 2476.36,728.36 755.47,606.15 1622.42,1507.86 2467.22,2597.77 292.31,-353.79 579.52,-667.86 854.06,-934.84 939.6,-913.76 1812.53,-1306.5 2395.97,-961.63 583.13,344.67 659.92,1298.33 312.6,2561.51 -240.83,875.92 -678.14,1940.14 -1274.75,3057.81zm-2892.79 -2943.09c-842.83,-1114.37 -1712.98,-2031.65 -2461.5,-2632.27 -670.07,-537.63 -1161.53,-814.18 -1315.44,-702.16 -153.62,111.8 -41.4,664.58 264.26,1467.87 373.11,980.59 1060,2213.83 1972.1,3467.18 76.87,105.61 168.02,227.4 272.62,364.46 54.68,-95.91 110.44,-192.05 167.33,-288.34l-0.34 -0.19 0.42 0.05 3.45 -5.88c355.72,-601.79 726.36,-1163.48 1097.1,-1670.72zm-7141.57 -18081.22c1336.03,947.69 2446.1,1959 3160.79,2827.9 832.39,1012.04 1151.11,1914.54 758.84,2467.56 -392.17,552.88 -1349.16,550.34 -2579.31,99.29 -1020.42,-374.17 -2291.62,-1055.39 -3586.75,-1960.42l-0.95 0 -126.71 -89.87c-1336.03,-947.69 -2446.1,-1959 -3160.79,-2827.91 -832.39,-1012.04 -1151.11,-1914.53 -758.84,-2467.56 392.17,-552.89 1349.16,-550.34 2579.31,-99.28 1020.42,374.16 2291.62,1055.39 3586.75,1960.42l0.97 0 126.69 89.87zm2423.04 3434.58c-662.36,-805.31 -1705.29,-1752.75 -2972.08,-2651.89l-5.23 -3.72c-1266.16,-898.14 -2507.06,-1570.12 -3489.71,-1930.45 -806.43,-295.68 -1360.44,-400.82 -1470.76,-245.28 -110.24,155.41 172.09,643.38 717.61,1306.64 662.32,805.26 1705.16,1752.63 2971.85,2651.73l5.46 3.87c1266.16,898.15 2507.06,1570.13 3489.71,1930.45 806.43,295.69 1360.44,400.82 1470.77,245.28 110.21,-155.39 -172.09,-643.37 -717.62,-1306.63zm-14435.44 -2508.1c-921.46,490.31 -2058.34,1326.56 -3192.16,2392.4 -1132.76,1064.86 -2037.18,2147.68 -2583.62,3037.44 -449.87,732.5 -662.9,1255 -532.44,1393.76 130.96,139.32 665.16,-40.4 1422.91,-443.61 921.46,-490.31 2058.34,-1326.56 3192.16,-2392.4 1132.76,-1064.87 2037.17,-2147.68 2583.62,-3037.44 449.87,-732.5 662.9,-1255 532.44,-1393.77 -130.97,-139.3 -665.16,40.4 -1422.91,443.62zm21239.79 5226.9l-3.91 -9.74c-643.55,-1507.64 -1060.94,-2950.1 -1215.5,-4063.46 -180.14,-1297.79 20.38,-2233.62 644.24,-2499.97 622.61,-265.75 1436.71,237.31 2249.55,1265.45 696.94,881.58 1448.79,2177.57 2090.8,3679.69l0.23 -0.1 3.91 9.74c643.55,1507.64 1060.94,2950.1 1215.5,4063.46 180.14,1297.79 -20.38,2233.62 -644.24,2499.97 -622.59,265.75 -1436.71,-237.31 -2249.55,-1265.45 -696.94,-881.58 -1448.79,-2177.57 -2090.8,-3679.69l-0.23 0.1zm872.22 -393.51l0.19 -0.1 3.91 9.74c611.14,1431.65 1316.84,2653.53 1963.7,3471.74 532.39,673.4 949.84,1052.32 1126.05,977.1 174.91,-74.66 189.35,-638.16 71.27,-1488.82 -143.38,-1032.83 -536.07,-2384.39 -1144.15,-3810.77l-0.19 0.1 -3.91 -9.74c-611.14,-1431.65 -1316.84,-2653.53 -1963.7,-3471.74 -532.39,-673.4 -949.84,-1052.32 -1126.05,-977.1 -174.93,74.68 -189.35,638.16 -71.27,1488.82 143.38,1032.83 536.07,2384.39 1144.15,3810.77zm-17262.04 34873.05c-1638.83,-147.17 -3107.6,-461.57 -4157.38,-850.8 -1228.01,-455.36 -1957.27,-1074.59 -1896.64,-1749.74 60.78,-676.91 889.38,-1157.34 2179.85,-1386.74 1102.14,-195.92 2601.9,-243.67 4237.91,-96.74 1638.82,147.17 3107.6,461.57 4157.37,850.81 1228.02,455.35 1957.28,1074.58 1896.65,1749.73 -60.79,676.91 -889.38,1157.34 -2179.85,1386.74 -1102.14,195.93 -2601.9,243.67 -4237.91,96.74zm-3824.09 -1749.62c984.07,364.89 2364,659.86 3906.46,798.38 1545.28,138.78 2957.24,94.51 3990.75,-89.22 845.24,-150.25 1376.51,-337.29 1393.4,-525.39 17.04,-189.94 -472.86,-469.75 -1278.7,-768.55 -984.06,-364.89 -2364,-659.86 -3906.46,-798.38 -1545.27,-138.78 -2957.23,-94.51 -3990.75,89.22 -845.24,150.25 -1376.5,337.3 -1393.39,525.4 -17.05,189.94 472.85,469.75 1278.69,768.54zm18183.18 -5751.81c1.28,-5.18 20.22,-60.73 22.79,-65.64 537.1,-1538.99 1193.55,-2875.72 1822.24,-3795.07 739.51,-1081.38 1516.91,-1639.12 2156.78,-1416.87 641.59,222.82 906.73,1142.12 816.77,2448.12 -76.53,1110.88 -389.57,2565.29 -921.06,4103.63 -1.74,6.75 -19.37,58.65 -22.64,65.21 -537.12,1539.06 -1193.61,2875.88 -1822.31,3795.27 -739.52,1081.37 -1516.9,1639.11 -2156.79,1416.86 -641.59,-222.82 -906.73,-1142.11 -816.76,-2448.12 76.52,-1110.82 389.52,-2565.14 920.98,-4103.39zm2635.2 -3321.42c-587.04,858.42 -1202.46,2113.47 -1709.18,3564.56l-9.7 38.85 -12.39 24.79c-502.86,1454.89 -798.48,2822.56 -869.96,3860.27 -59.11,858 -6.23,1419.82 172.63,1481.93 180.58,62.72 570.86,-344.53 1055.79,-1053.63 587.05,-858.42 1202.46,-2113.47 1709.18,-3564.56l9.71 -38.85 12.38 -24.79c502.87,-1454.89 798.48,-2822.56 869.96,-3860.27 59.11,-857.99 6.23,-1419.82 -172.63,-1481.93 -180.58,-62.72 -570.85,344.53 -1055.79,1053.63zm5538.48 -8996.03l-0.02 -5.96c-74.03,-1636.03 40.86,-3132.55 286.5,-4229.51 286.49,-1279.48 802.49,-2086.2 1479.93,-2116.86 676.38,-30.61 1262.46,725.72 1663.13,1973.24 342.64,1066.96 591.87,2542.38 666.86,4174.88l0.71 -0.05c0.34,4.46 0.04,10.79 0.04,15.57 74.03,1636.03 -40.86,3132.54 -286.5,4229.5 -286.49,1279.49 -802.47,2086.21 -1479.94,2116.87 -676.37,30.6 -1262.45,-725.73 -1663.12,-1973.25 -342.64,-1066.95 -591.87,-2542.38 -666.86,-4174.88l-0.71 0.06 -0.02 -9.61zm1218.97 -4029.5c-227.62,1016.49 -333.67,2418.92 -264.66,3967.78l0.65 -0.06 0.02 15.23c70.27,1552.29 303.07,2943.89 622.62,3938.88 262.6,817.63 520.68,1319.04 711.93,1310.39 190.11,-8.59 401.18,-530.73 588.63,-1367.88 227.62,-1016.48 333.67,-2418.91 264.66,-3967.78l-0.65 0.06 -0.02 -15.22c-70.27,-1552.3 -303.07,-2943.89 -622.63,-3938.89 -262.59,-817.63 -520.69,-1319.03 -711.92,-1310.39 -190.13,8.59 -401.18,530.73 -588.63,1367.88zm-19310.26 -2211.34c-1536.42,473.48 -2986.02,735.36 -4094.14,776.24 -1309.36,48.28 -2220.15,-245.34 -2421.98,-892.34 -201.66,-646.44 381.07,-1405.84 1486.26,-2110.93 949.7,-605.91 2318.44,-1224.46 3880.99,-1711.91l72.5 -22.47c1536.42,-473.47 2986.02,-735.35 4094.14,-776.23 1309.35,-48.28 2220.15,245.33 2421.98,892.33 201.66,646.43 -381.07,1405.84 -1486.26,2110.94 -949.7,605.91 -2318.44,1224.45 -3880.99,1711.9l-72.5 22.47zm-4127.85 -178.72c1042.22,-38.42 2429.83,-294 3915.7,-757.52l3.23 -1c1485.22,-463.59 2771.03,-1041.93 3649.35,-1602.3 723.52,-461.6 1142.54,-838.47 1085.55,-1021.15 -56.81,-182.13 -616.17,-253.65 -1474.5,-222 -1042.22,38.43 -2429.83,294 -3915.71,757.52l-3.37 1.06c-1485.17,463.58 -2770.92,1041.89 -3649.2,1602.24 -723.52,461.61 -1142.54,838.48 -1085.55,1021.15 56.81,182.16 616.16,253.66 1474.5,222zm15600.97 6958.07c792.4,-1340.57 1359.46,-2632.33 1635.69,-3636.96 227.77,-828.41 286.35,-1389.47 121.81,-1486.72 -164.25,-97.08 -627.08,224.57 -1242.51,823.07 -746.86,726.31 -1603.51,1842.85 -2393.57,3178.01l-1.52 3.28 -3.83 5.75c-792.34,1340.52 -1359.4,2632.22 -1635.61,3636.85 -227.75,828.37 -286.33,1389.41 -121.79,1486.66 164.22,97.06 627.07,-224.57 1242.51,-823.07 748.51,-727.92 1607.29,-1847.75 2398.82,-3186.87zm-13710.38 6931.65c866.56,582.29 2139.74,1191.82 3614.01,1690.46 1472.69,498.1 2853.77,786.32 3896.05,849.6 857.57,52.06 1418.61,-6.08 1479.72,-186.76 61.11,-180.68 -348.84,-567.08 -1061.03,-1045.63 -865.16,-581.39 -2135.61,-1189.86 -3606.88,-1688.05l-7.19 -2.44c-1472.7,-498.11 -2853.75,-786.33 -3896.05,-849.61 -857.55,-52.06 -1418.57,6.1 -1479.68,186.78 -61.11,180.66 348.86,567.08 1061.05,1045.65zm-17931.72 -10410.77l-0.14 -0.35c-486.22,-1564.16 -754.35,-3041.43 -794.69,-4165.33 -47.02,-1309.6 247.31,-2220.25 894.21,-2421.35 646.94,-201.12 1405.82,382.14 2109.67,1487.75 604.45,949.42 1221.64,2319.29 1708.2,3884.43l0.12 0.35c486.22,1564.16 754.35,3041.43 794.7,4165.33 47.01,1309.61 -247.33,2220.25 -894.22,2421.35 -646.94,201.12 -1405.82,-382.14 -2109.67,-1487.75 -604.45,-949.42 -1221.63,-2319.29 -1708.18,-3884.43zm160.12 -4199.39c37.47,1043.8 291.64,2432.34 753.51,3918.18l0.12 0.34c461.62,1484.88 1039.11,2771.88 1599.6,3652.23 461.03,724.18 837.46,1143.77 1019.88,1087.05 182.5,-56.74 254.69,-615.84 223.88,-1473.87 -37.47,-1043.79 -291.64,-2432.34 -753.51,-3918.18l-0.12 -0.34c-461.62,-1484.88 -1039.11,-2771.88 -1599.6,-3652.23 -461.02,-724.17 -837.45,-1143.77 -1019.88,-1087.05 -182.48,56.72 -254.69,615.84 -223.88,1473.87zm8900.49 6693.62c1186.26,-1132.01 2390.9,-2029.35 3379.57,-2564.96 1151.34,-623.75 2097.71,-764.12 2566.19,-273.2 468.03,490.44 283.15,1429.31 -394.07,2550.72 -580.39,961.07 -1533.29,2122.31 -2721.06,3255.78 -1186.26,1132.01 -2390.91,2029.35 -3379.57,2564.97 -1151.34,623.74 -2097.71,764.11 -2566.2,273.19 -468.02,-490.44 -283.14,-1429.31 394.07,-2550.72 580.39,-961.07 1533.3,-2122.31 2721.07,-3255.78zm3832.69 -1722.33c-918.62,497.67 -2049.08,1342.09 -3173.55,2415.14 -1122.99,1071.63 -2019.1,2161.56 -2560.04,3057.32 -444.14,735.43 -653.04,1259.32 -521.43,1397.24 131.15,137.42 664.31,-47.17 1420.26,-456.7 918.62,-497.67 2049.08,-1342.08 3173.56,-2415.14 1122.98,-1071.63 2019.09,-2161.56 2560.04,-3057.32 444.13,-735.43 653.04,-1259.31 521.43,-1397.23 -131.16,-137.43 -664.32,47.16 -1420.27,456.69zm-9367.78 10386.38l-0.5 0.5 -11.27 -13.15c-1061.36,-1137.73 -2140.53,-2046.36 -3027.2,-2595.61 -730.22,-452.34 -1251.93,-666.83 -1391.94,-536.23 -139.04,129.69 39.17,664.52 439.68,1424.23 485.5,920.88 1312.96,2056.12 2368.01,3188.94l0.5 -0.5 11.27 13.15c1061.36,1137.73 2140.53,2046.36 3027.21,2595.61 730.21,452.34 1251.93,666.82 1391.94,536.23 139.05,-129.72 -39.18,-664.53 -439.69,-1424.23 -485.49,-920.89 -1312.96,-2056.12 -2368.01,-3188.94z"></path></g></svg>