<svg xmlns="http://www.w3.org/2000/svg" xmlns:xlink="http://www.w3.org/1999/xlink" version="1.1" x="0px" y="0px" viewBox="0 0 100 100" style="enable-background:new 0 0 100 100;" xml:space="preserve"><g><path d="M53.1,57v-3.9H55h0.1c0,0,0,0,0.1,0l0,0c0.5,0,1-0.4,1-1L56,6.8c0-3.3-2.7-6-6-6s-6,2.7-6,6l0.1,45.1c0,0.1,0,0.3,0.1,0.4   c0.1,0.5,0.5,0.8,0.9,0.8h1.8V57H42v33.1c0,0.1,0,0.2,0,0.2c0.3,5,3.8,8.9,7.9,8.9s7.6-3.9,7.9-8.9c0-0.1,0-0.2,0-0.2V57H53.1z    M46,51.2l-0.1-39.8h8.2l0.1,39.8H46z M50,2.7c2.3,0,4.1,1.8,4.1,4.1v2.7h-8.2V6.8C45.9,4.5,47.7,2.7,50,2.7z M48.8,53.1h2.4V57   h-2.4V53.1z M50,97.3c-3.3,0-6-3.5-6-7.8V58.9h12.1v30.5C56,93.8,53.3,97.3,50,97.3z"></path><path d="M46.6,91.4h6.8V60.7h-6.8V91.4z M48.6,62.7h2.9v26.8h-2.9V62.7z"></path></g></svg>