<svg xmlns="http://www.w3.org/2000/svg" xmlns:xlink="http://www.w3.org/1999/xlink" width="100" height="100" viewBox="0 0 100 100"><g><g transform="translate(50 50) scale(0.69 0.69) rotate(0) translate(-50 -50)" style="fill:#000000"><svg fill="#000000" xmlns="http://www.w3.org/2000/svg" xmlns:xlink="http://www.w3.org/1999/xlink" version="1.1" x="0px" y="0px" viewBox="0 0 66 66" enable-background="new 0 0 66 66" xml:space="preserve"><g><path d="M17.2,57.9h13.5c0.6,0,1-0.4,1-1v-18c0-0.6-0.4-1-1-1H17.2c-0.6,0-1,0.4-1,1v18C16.2,57.5,16.6,57.9,17.2,57.9z M18.2,39.9   h11.5v16H18.2V39.9z"></path><path d="M10.2,29.1c0.1,0.5,0.6,0.9,1.2,0.8l43-7.2c0.5-0.1,0.9-0.6,0.8-1.2c-0.6-3.5-3.6-6-7.1-6c-1.1,0-0.9,0.1-11.4,1.8l0.5-3.5   c0-0.3-0.1-0.6-0.3-0.9c-0.2-0.2-0.6-0.3-0.9-0.3l-10.8,1.8c-0.3,0.1-0.6,0.3-0.7,0.5c-0.1,0.3-0.1,0.6,0,0.9l1.7,3.2l-10.2,1.7   C12.2,21.5,9.5,25.2,10.2,29.1z M27,16.2l8.1-1.4l-0.4,2.8l-6.3,1.1L27,16.2z M16.4,22.8c33.4-5.6,31.1-5.2,31.7-5.2   c2.2,0,4.1,1.4,4.8,3.3l-40.9,6.8C12.2,25.3,13.9,23.2,16.4,22.8z"></path><path d="M6.5,32.9c0,0.6,0.4,1,1,1h2.7v24.6c0,3,2.4,5.4,5.3,5.4h35c3,0,5.3-2.4,5.3-5.4V33.9h2.7c0.6,0,1-0.4,1-1s-0.4-1-1-1   c-18.8,0-32,0-51,0C7,31.9,6.5,32.3,6.5,32.9z M53.8,33.9v24.6c0,1.8-1.5,3.4-3.3,3.4h-35c-1.8,0-3.3-1.5-3.3-3.4V33.9H53.8z"></path><path d="M55.5,12.3V6.4c0-0.6-0.4-1-1-1s-1,0.4-1,1v5.9c0,0.6,0.4,1,1,1S55.5,12.8,55.5,12.3z"></path><path d="M51.5,9V3.1c0-0.6-0.4-1-1-1s-1,0.4-1,1V9c0,0.6,0.4,1,1,1S51.5,9.6,51.5,9z"></path><path d="M47.4,12.3V6.4c0-0.6-0.4-1-1-1s-1,0.4-1,1v5.9c0,0.6,0.4,1,1,1S47.4,12.8,47.4,12.3z"></path><path d="M19.9,12.3V6.4c0-0.6-0.4-1-1-1s-1,0.4-1,1v5.9c0,0.6,0.4,1,1,1S19.9,12.8,19.9,12.3z"></path><path d="M15.8,9V3.1c0-0.6-0.4-1-1-1s-1,0.4-1,1V9c0,0.6,0.4,1,1,1S15.8,9.6,15.8,9z"></path><path d="M10.8,5.4c-0.6,0-1,0.4-1,1v5.9c0,0.6,0.4,1,1,1s1-0.4,1-1V6.4C11.8,5.8,11.3,5.4,10.8,5.4z"></path></g></svg></g></g></svg>