<svg xmlns="http://www.w3.org/2000/svg" viewBox="0 0 100 100" x="0px" y="0px"><title>Icone_Varie_02</title><g data-name="Layer 1"><path d="M50,94.98828a31.65322,31.65322,0,0,1-21.20068-7.5918,37.62725,37.62725,0,0,1-12.4375-22.10009C14.313,52.88525,14.4165,34.77344,26.5459,18.97021c10.167-13.24658,20.9956-13.91748,23.063-13.91748.187,0,.32177.00586.397.01075.99268-.04,12.585-.24707,23.44824,13.90673C85.584,34.7749,85.6875,52.88623,83.63818,65.29639A37.6284,37.6284,0,0,1,71.20166,87.39648,31.65848,31.65848,0,0,1,50,94.98828ZM49.60889,9.05273c-1.06543,0-10.67481.34668-19.89014,12.353C18.4624,36.07178,18.38818,53.01465,20.30811,64.645A33.61689,33.61689,0,0,0,31.43066,84.38379,27.71381,27.71381,0,0,0,50,90.98828a27.71814,27.71814,0,0,0,18.57031-6.60449A33.61945,33.61945,0,0,0,79.69189,64.645c1.92041-11.62988,1.8462-28.57178-9.41064-43.23926C60.4834,8.63965,50.34473,9.05762,50.23779,9.05566a3.47684,3.47684,0,0,1-.5039-.00195Z"></path><path d="M41.8252,81.3374a18.902,18.902,0,0,1-3.21485-1.71533,22.36791,22.36791,0,0,1-8.26269-10.10449,2.00041,2.00041,0,0,0-3.709,1.5,26.41731,26.41731,0,0,0,9.75684,11.93506,22.87,22.87,0,0,0,3.89648,2.0791A1.99993,1.99993,0,1,0,41.8252,81.3374Z"></path><path d="M28.5166,64.47168l-.07324-.25147a1.99967,1.99967,0,1,0-3.83984,1.11817l.07324.25146a1.99967,1.99967,0,1,0,3.83984-1.11816Z"></path></g></svg>