<svg xmlns="http://www.w3.org/2000/svg" xmlns:xlink="http://www.w3.org/1999/xlink" width="100" height="100" viewBox="0 0 100 100"><g><g transform="translate(50 50) scale(0.69 0.69) rotate(0) translate(-50 -50)" style="fill:#000000"><svg fill="#000000" xmlns="http://www.w3.org/2000/svg" xmlns:xlink="http://www.w3.org/1999/xlink" version="1.1" x="0px" y="0px" viewBox="0 0 100 100" enable-background="new 0 0 100 100" xml:space="preserve"><g><path d="M81.4,57c-0.7-1.9-1.9-3.2-14,0.9c-11.4,3.9-12.2,5.9-11.6,7.9c0.7,1.9,3.4,2.7,14-0.9C80.1,61.3,82,58.9,81.4,57z    M80.2,58c-0.1,0.2-0.2,0.4-0.3,0.8c-0.3,0.6-1,1.4-2.2,2c-1.1,0.5-2.4,1.2-3.8,1.7c-1.4,0.6-2.9,1.2-4.4,1.7   c-1.5,0.5-3.1,1-4.6,1.3c-1.5,0.3-2.8,0.7-4,0.9c-1.2,0.2-2.2,0.2-2.9,0.1c-0.7-0.1-1.1-0.3-1.1-0.3s0.4,0.1,1.1,0.2   c0.7,0,1.7,0,2.9-0.3c1.2-0.3,2.5-0.7,4-1.1c1.5-0.4,3-0.8,4.5-1.4c1.5-0.5,3-1.1,4.4-1.7c0.7-0.3,1.4-0.5,2-0.8   c0.6-0.3,1.2-0.5,1.8-0.8c1.1-0.5,1.8-1.2,2.2-1.8C80,58.4,80.1,58.2,80.2,58c0-0.2,0.1-0.3,0.1-0.3S80.3,57.8,80.2,58z M81.4,70.8   c-0.7-1.9-1.9-3.2-14,0.9c-11.4,3.9-12.2,5.9-11.6,7.9c0.7,1.9,3.4,2.7,14-0.9C80.1,75.1,82,72.7,81.4,70.8z M80.2,71.9   c-0.1,0.2-0.2,0.4-0.3,0.8c-0.3,0.6-1,1.4-2.2,2c-1.1,0.5-2.4,1.2-3.8,1.7c-1.4,0.6-2.9,1.2-4.4,1.7c-1.5,0.5-3.1,1-4.6,1.3   c-1.5,0.3-2.8,0.7-4,0.9c-1.2,0.2-2.2,0.2-2.9,0.1c-0.7-0.1-1.1-0.3-1.1-0.3s0.4,0.1,1.1,0.2c0.7,0,1.7,0,2.9-0.3   c1.2-0.3,2.5-0.7,4-1.1c1.5-0.4,3-0.8,4.5-1.4c1.5-0.5,3-1.1,4.4-1.7c0.7-0.3,1.4-0.5,2-0.8c0.6-0.3,1.2-0.5,1.8-0.8   c1.1-0.5,1.8-1.2,2.2-1.8C80,72.3,80.1,72,80.2,71.9c0-0.2,0.1-0.3,0.1-0.3S80.3,71.7,80.2,71.9z M41.6,78.7   c0.8-1.8,0.9-3.6-10.7-9c-11-5-12.9-4.1-13.8-2.3c-0.8,1.8,0.6,4.3,10.7,9C37.7,81,40.8,80.6,41.6,78.7z M40.1,78.7   c-0.2,0.1-0.4,0.2-0.8,0.3c-0.7,0.2-1.8,0.3-2.9-0.1c-1.1-0.4-2.5-0.8-3.9-1.4c-1.4-0.5-2.9-1.1-4.4-1.8c-1.5-0.7-2.9-1.5-4.2-2.2   c-1.3-0.8-2.5-1.5-3.6-2.1c-1-0.7-1.8-1.4-2.2-2c-0.4-0.6-0.6-0.9-0.6-0.9s0.2,0.4,0.7,0.9c0.5,0.5,1.3,1.2,2.3,1.8   c1,0.6,2.3,1.2,3.6,2c1.3,0.7,2.7,1.5,4.2,2.1c1.5,0.7,2.9,1.3,4.4,1.9c0.7,0.3,1.4,0.6,2,0.8c0.6,0.2,1.3,0.5,1.8,0.7   c1.1,0.4,2.1,0.4,2.8,0.3C39.6,78.9,39.9,78.8,40.1,78.7c0.2-0.1,0.2-0.1,0.2-0.1S40.3,78.6,40.1,78.7z M49.8,62.2   c0.7-1.9,0.5-3.7-11.5-7.9c-11.4-4-13.3-2.9-13.9-1c-0.7,1.9,1,4.2,11.5,7.9C46.1,64.8,49.1,64.1,49.8,62.2z M48.2,62.3   c-0.2,0.1-0.4,0.3-0.7,0.4c-0.7,0.3-1.7,0.5-2.9,0.2c-1.2-0.3-2.6-0.6-4-1c-1.5-0.4-3-0.9-4.6-1.4c-1.5-0.5-3-1.2-4.4-1.8   c-1.4-0.6-2.6-1.2-3.7-1.8c-1.1-0.6-1.9-1.2-2.4-1.7c-0.5-0.5-0.7-0.9-0.7-0.9s0.2,0.3,0.7,0.8c0.5,0.5,1.4,1,2.4,1.6   c1.1,0.5,2.4,1,3.8,1.6c1.4,0.6,2.9,1.2,4.4,1.7c1.5,0.5,3.1,1,4.5,1.4c0.7,0.2,1.4,0.4,2.1,0.6c0.7,0.2,1.3,0.4,1.9,0.5   c1.1,0.3,2.2,0.2,2.8,0C47.8,62.5,48.1,62.4,48.2,62.3c0.1-0.1,0.2-0.2,0.2-0.2S48.4,62.2,48.2,62.3z M70.9,49.1   c0.6-1.9,0.5-3.7-11.7-7.7c-11.5-3.8-13.3-2.6-14-0.7c-0.6,1.9,1.1,4.2,11.7,7.7C67.3,51.8,70.3,51,70.9,49.1z M69.3,49.2   c-0.2,0.1-0.4,0.3-0.7,0.4c-0.6,0.3-1.7,0.5-2.9,0.3c-1.2-0.2-2.6-0.5-4-0.9c-1.5-0.4-3-0.8-4.6-1.3c-1.5-0.5-3.1-1.1-4.4-1.7   c-1.4-0.6-2.7-1.2-3.8-1.7c-1.1-0.5-1.9-1.2-2.4-1.7c-0.5-0.5-0.7-0.9-0.7-0.9s0.2,0.3,0.8,0.8c0.5,0.5,1.4,1,2.5,1.5   c1.1,0.5,2.4,1,3.8,1.6c1.4,0.6,2.9,1.2,4.4,1.6c1.5,0.5,3.1,1,4.5,1.3c0.7,0.2,1.4,0.4,2.1,0.6c0.7,0.2,1.3,0.3,1.9,0.5   c1.1,0.3,2.2,0.2,2.8-0.1C68.9,49.5,69.2,49.3,69.3,49.2c0.1-0.1,0.2-0.2,0.2-0.2S69.5,49.1,69.3,49.2z M46.6,34.7   c-0.5-2-1.6-3.4-14-0.3c-11.7,2.9-12.7,4.8-12.2,6.8c0.5,2,3.2,3,14,0.3C44.9,38.9,47.1,36.6,46.6,34.7z M45.3,35.6   c-0.1,0.2-0.2,0.4-0.4,0.7c-0.4,0.6-1.2,1.4-2.3,1.8c-1.1,0.4-2.5,0.9-3.9,1.4c-1.4,0.5-3,0.9-4.6,1.3c-1.6,0.4-3.2,0.7-4.7,0.9   c-1.5,0.2-2.9,0.4-4.1,0.6c-1.2,0.1-2.2,0-2.9-0.2c-0.7-0.2-1.1-0.4-1.1-0.4s0.4,0.2,1.1,0.3c0.7,0.1,1.7,0.1,2.9,0   c1.2-0.2,2.6-0.5,4.1-0.7c1.5-0.2,3.1-0.5,4.6-1c1.6-0.4,3.1-0.8,4.6-1.3c0.7-0.2,1.4-0.4,2.1-0.6c0.7-0.2,1.3-0.4,1.9-0.6   c1.1-0.4,1.9-1,2.4-1.6C45.1,36,45.2,35.8,45.3,35.6c0.1-0.2,0.1-0.3,0.1-0.3S45.4,35.4,45.3,35.6z M50.2,19.3   c-0.5-2-1.6-3.4-14-0.3c-11.7,2.9-12.7,4.8-12.2,6.8c0.5,2,3.2,3,14,0.3C48.6,23.4,50.7,21.2,50.2,19.3z M49,20.2   c-0.1,0.2-0.2,0.4-0.4,0.7c-0.4,0.6-1.2,1.4-2.3,1.8c-1.1,0.4-2.5,0.9-3.9,1.4c-1.4,0.5-3,0.9-4.6,1.3c-1.6,0.4-3.2,0.7-4.7,0.9   c-1.5,0.2-2.9,0.4-4.1,0.6c-1.2,0.1-2.2,0-2.9-0.2c-0.7-0.2-1.1-0.4-1.1-0.4s0.4,0.2,1.1,0.3c0.7,0.1,1.7,0.1,2.9,0   c1.2-0.2,2.6-0.5,4.1-0.7c1.5-0.2,3.1-0.5,4.6-1c1.6-0.4,3.1-0.8,4.6-1.3c0.7-0.2,1.4-0.4,2.1-0.6c0.7-0.2,1.3-0.4,1.9-0.6   c1.1-0.4,1.9-1,2.4-1.6C48.7,20.6,48.9,20.4,49,20.2c0.1-0.2,0.1-0.3,0.1-0.3S49,20,49,20.2z M77.5,33.6c1.1-1.7,1.3-3.5-9.6-10.1   c-10.3-6.3-12.4-5.6-13.4-3.9c-1.1,1.7,0.1,4.4,9.6,10.1C73.4,35.4,76.5,35.3,77.5,33.6z M76,33.4c-0.2,0.1-0.4,0.2-0.8,0.2   c-0.7,0.1-1.8,0.1-2.9-0.4c-1.1-0.5-2.4-1.1-3.7-1.8c-1.3-0.7-2.8-1.5-4.2-2.3c-1.4-0.8-2.7-1.8-3.9-2.7c-1.2-0.9-2.3-1.8-3.3-2.5   c-0.9-0.8-1.6-1.6-2-2.2c-0.4-0.6-0.5-1-0.5-1s0.1,0.4,0.6,1c0.4,0.6,1.1,1.3,2.1,2c1,0.7,2.2,1.5,3.4,2.4c1.2,0.9,2.6,1.8,3.9,2.6   c1.4,0.8,2.8,1.6,4.1,2.3c0.7,0.4,1.3,0.7,1.9,1c0.6,0.3,1.2,0.6,1.7,0.9c1.1,0.5,2.1,0.7,2.8,0.6C75.6,33.5,75.8,33.4,76,33.4   c0.2-0.1,0.3-0.1,0.3-0.1S76.2,33.3,76,33.4z"></path></g></svg></g></g></svg>