<svg xmlns="http://www.w3.org/2000/svg" xmlns:xlink="http://www.w3.org/1999/xlink" version="1.1" x="0px" y="0px" viewBox="0 0 100 100" enable-background="new 0 0 100 100" xml:space="preserve"><g display="none"><path display="inline" fill="#000000" stroke="#000000" stroke-miterlimit="10" d="M63.479,50.56c0-4.511,1.912-8.257,4.438-9.046   V22.945H32.083v18.424c2.919,0.149,5.26,4.202,5.26,9.19c0,4.989-2.341,9.042-5.26,9.191V76.86l35.834-0.001V59.605   C65.392,58.818,63.479,55.071,63.479,50.56z"></path><path display="inline" fill="#000000" stroke="#000000" stroke-miterlimit="10" d="M50,27.465c-2.996,0-5.424,2.428-5.424,5.424   v39.449h10.85v-39.45C55.425,29.893,52.996,27.465,50,27.465z"></path><path display="inline" fill="#000000" stroke="#000000" stroke-miterlimit="10" d="M50,27.465c-2.996,0-5.424,2.428-5.424,5.424   v39.449h10.85v-39.45C55.425,29.893,52.996,27.465,50,27.465z"></path><circle display="inline" fill="#000000" stroke="#000000" stroke-miterlimit="10" cx="49.999" cy="49.902" r="3.366"></circle><path display="inline" fill="#000000" stroke="#000000" stroke-miterlimit="10" d="M48.688,71.929h2.844V32.149   c0,0-0.323-3.287-3.063-4.273L48.688,71.929z"></path></g><g display="none"><polyline display="inline" fill="none" stroke="#000000" stroke-miterlimit="10" points="56.25,40.072 56.25,45.288 43.419,45.288    43.419,40.072  "></polyline><path display="inline" fill="none" stroke="#000000" stroke-miterlimit="10" d="M41.163,49.776c0,0-3.524,18.188,2.397,18.188   c5.922,0,12.549,0,12.549,0s5.218,1.129,2.538-18.189L41.163,49.776z"></path><path display="inline" fill="none" stroke="#000000" stroke-miterlimit="10" d="M41.234,49.352c0-2.285,1.712-4.087,3.713-4.087"></path><path display="inline" fill="none" stroke="#000000" stroke-miterlimit="10" d="M58.578,49.728c0-2.286-1.924-4.44-3.925-4.44"></path><path display="inline" fill="none" stroke="#000000" stroke-miterlimit="10" d="M65.979,71.677c0,2.492-2.02,4.512-4.512,4.512   H38.531c-2.491,0-4.511-2.02-4.511-4.512V38.777c0-2.492,2.02-4.512,4.511-4.512h22.937c2.492,0,4.512,2.02,4.512,4.512V71.677z"></path><path display="inline" fill="none" stroke="#000000" stroke-miterlimit="10" d="M62.468,68.062c0,1.944-1.576,3.521-3.521,3.521   H41.052c-1.944,0-3.521-1.576-3.521-3.521V42.393c0-1.944,1.577-3.521,3.521-3.521h17.896c1.944,0,3.521,1.577,3.521,3.521V68.062z   "></path><rect x="45.676" y="68.528" display="inline" fill="none" stroke="#000000" stroke-miterlimit="10" width="8.672" height="2.82"></rect><path display="inline" fill="none" stroke="#000000" stroke-miterlimit="10" d="M45.676,71.631   c-1.481,0.705-4.936,4.371-4.936,4.371"></path><path display="inline" fill="none" stroke="#000000" stroke-miterlimit="10" d="M53.854,71.349c1.48,0.705,4.936,4.371,4.936,4.371   "></path><line display="inline" fill="none" stroke="#000000" stroke-miterlimit="10" x1="40.388" y1="55.204" x2="56.744" y2="67.683"></line><line display="inline" fill="none" stroke="#000000" stroke-miterlimit="10" x1="58.859" y1="55.062" x2="42.785" y2="67.612"></line><path display="inline" fill="none" stroke="#000000" stroke-miterlimit="10" d="M47.438,68.176c0-1.286,1.042-2.326,2.327-2.326   c1.284,0,2.327,1.04,2.327,2.326"></path><rect x="44.265" y="28.555" display="inline" fill="none" stroke="#000000" stroke-miterlimit="10" width="10.999" height="4.301"></rect><path display="inline" fill="none" stroke="#000000" stroke-miterlimit="10" d="M37.709,67.118"></path><polyline display="inline" fill="none" stroke="#000000" stroke-miterlimit="10" points="41.586,79.033 38.836,83.123    38.836,85.52 60.833,85.52 60.833,83.123 58.437,79.174  "></polyline><polyline display="inline" fill="none" stroke="#000000" stroke-miterlimit="10" points="58.647,76.707 58.647,79.457    40.669,79.457 40.669,76.707  "></polyline><rect x="41.868" y="33.419" display="inline" fill="#000000" stroke="#000000" stroke-miterlimit="10" width="15.652" height="6.909"></rect><path display="inline" fill="none" stroke="#000000" stroke-miterlimit="10" d="M41.163,27.849h16.921L47.939,14.473   c0,0-2.045-0.423-4.371,0L41.163,27.849z"></path></g><g display="none"><polygon display="inline" fill="#000000" stroke="#000000" stroke-miterlimit="10" points="20.997,41.883 31.473,29.655    47.512,31.532 46.95,36.344 32.233,34.621 24.473,44.305  "></polygon><g display="inline"><path fill="#000000" stroke="#000000" stroke-miterlimit="10" d="M80.413,57.5c0.021,0,0.066,0.176,0.066,0.541    c0,12.021-11.696,21.498-26.124,21.498c-14.431,0-26.127-9.34-26.127-21.362c0-0.366,0.044-0.677,0.065-0.677H80.413z"></path><path fill="#000000" stroke="#000000" stroke-miterlimit="10" d="M54.355,36.811c13.989,0,25.378,9.689,26.058,20.689h-52.12    C28.975,46.5,40.363,36.811,54.355,36.811z"></path></g><rect x="41.5" y="28.5" display="inline" fill="#000000" stroke="#000000" stroke-miterlimit="10" width="25" height="12"></rect><polygon display="inline" fill="#000000" stroke="#000000" stroke-miterlimit="10" points="68.168,21.562 66.882,28.5 42.593,28.5     "></polygon><path display="inline" fill="none" stroke="#000000" stroke-miterlimit="10" d="M71.193,61.377c0,6.204-7.03,11.226-15.717,11.226"></path></g><g display="none"><path display="inline" fill="#000000" stroke="#000000" stroke-miterlimit="10" d="M55.555,17.594   c0.003-0.019,0.006-0.037,0.006-0.056c0-0.651-2.49-1.178-5.562-1.178c-3.071,0-5.56,0.527-5.56,1.178c0,0.019,0,0.037,0.005,0.056   c-0.149,0.198-0.242,6.711-0.242,6.711c0,0.65,0.527,1.177,1.178,1.177h9.238c0.651,0,1.18-0.527,1.18-1.177   C55.798,24.305,55.702,17.792,55.555,17.594"></path><path display="inline" fill="none" stroke="#000000" stroke-miterlimit="10" d="M55.555,17.594   c0.003-0.019,0.006-0.037,0.006-0.056c0-0.651-2.49-1.178-5.562-1.178c-3.071,0-5.56,0.527-5.56,1.178c0,0.019,0,0.037,0.005,0.056   c-0.149,0.198-0.242,6.711-0.242,6.711c0,0.65,0.527,1.177,1.178,1.177h9.238c0.651,0,1.18-0.527,1.18-1.177   C55.798,24.305,55.702,17.792,55.555,17.594z"></path><path display="inline" fill="#000000" stroke="#000000" stroke-miterlimit="10" d="M65.487,78.317c0,0,0.236-35.621,0.153-35.9   c-0.569-4.395-4.887-8.039-10.714-9.371c-1.543-0.354-8.493-0.325-10.127,0.077c-6.093,1.496-10.458,5.537-10.458,10.288   c0,0.333,0.339,34.906,0.339,34.906c-0.03,1.623,0.487,2.845,1.079,3.613c0.041,0.075,0.104,0.15,0.187,0.223   c0.425,0.476,1.538,0.727,1.538,0.727c2.452,0.752,22.748,0.752,25.198,0c0,0,1.114-0.251,1.539-0.727   c0.083-0.072,0.145-0.147,0.186-0.223C65.002,81.162,65.518,79.94,65.487,78.317"></path><path display="inline" fill="none" stroke="#000000" stroke-miterlimit="10" d="M65.487,78.317c0,0,0.236-35.621,0.153-35.9   c-0.569-4.395-4.887-8.039-10.714-9.371c-1.543-0.354-8.493-0.325-10.127,0.077c-6.093,1.496-10.458,5.537-10.458,10.288   c0,0.333,0.339,34.906,0.339,34.906c-0.03,1.623,0.487,2.845,1.079,3.613c0.041,0.075,0.104,0.15,0.187,0.223   c0.425,0.476,1.538,0.727,1.538,0.727c2.452,0.752,22.748,0.752,25.198,0c0,0,1.114-0.251,1.539-0.727   c0.083-0.072,0.145-0.147,0.186-0.223C65.002,81.162,65.518,79.94,65.487,78.317z"></path><rect x="44.815" y="25.326" display="inline" fill="#000000" stroke="#000000" stroke-miterlimit="10" width="10.37" height="7.529"></rect><rect x="44.815" y="25.326" display="inline" fill="none" stroke="#000000" stroke-miterlimit="10" width="10.37" height="7.529"></rect><path display="inline" fill="#000000" stroke="#000000" stroke-miterlimit="10" d="M47.181,73.291   c-0.835,0-6.227-0.371-7.542-0.731V49.138c0-0.209,0.17-0.379,0.381-0.379h19.957c0.211,0,0.384,0.169,0.384,0.379v23.456   c-1.07,0.344-5.158,0.697-5.781,0.697H47.181z"></path><text transform="matrix(1 0 0 1 45.3579 65.9756)" display="inline" fill="#000000" stroke="#000000" stroke-miterlimit="10" font-family="'Multicolore'" font-size="14.3954">X</text></g><g display="none"><path display="inline" fill="none" stroke="#000000" stroke-miterlimit="10" d="M34.368,75.876c0,0.918,0.774,1.663,1.729,1.663   h27.949c0.955,0,1.729-0.745,1.729-1.663V35.144c0-0.919-0.774-1.663-1.729-1.663H36.097c-0.955,0-1.729,0.744-1.729,1.663V75.876z   "></path><line display="inline" fill="none" stroke="#000000" stroke-miterlimit="10" x1="65.631" y1="71.88" x2="34.225" y2="71.88"></line><line display="inline" fill="none" stroke="#000000" stroke-miterlimit="10" x1="65.631" y1="68.458" x2="34.657" y2="68.458"></line><line display="inline" fill="none" stroke="#000000" stroke-miterlimit="10" x1="53.385" y1="48.215" x2="45.103" y2="56.773"></line><line display="inline" fill="none" stroke="#000000" stroke-miterlimit="10" x1="45.749" y1="48.661" x2="53.89" y2="57.071"></line><polygon display="inline" fill="none" stroke="#000000" stroke-miterlimit="10" points="43.301,25.615 43.301,25.615    56.699,25.615 56.699,25.615 56.699,22.266 56.699,22.266 43.301,22.266 43.301,22.266  "></polygon><polyline display="inline" fill="none" stroke="#000000" stroke-miterlimit="10" points="44.922,33.206 44.922,28.629    54.861,28.629 54.861,33.206  "></polyline><line display="inline" fill="none" stroke="#000000" stroke-miterlimit="10" x1="53.134" y1="28.294" x2="53.134" y2="26.062"></line><line display="inline" fill="none" stroke="#000000" stroke-miterlimit="10" x1="46.542" y1="28.406" x2="46.542" y2="26.174"></line></g><g display="none"><g display="inline"><path fill="#000000" d="M49.115,88.502c-8.789,0-15.939-8.128-15.939-18.119V60.328c0-9.991,7.15-18.119,15.939-18.119h2.63    c8.788,0,15.938,8.128,15.938,18.119v10.055c0,9.991-7.15,18.119-15.938,18.119H49.115z"></path><g><path d="M51.745,42.709c8.513,0,15.438,7.904,15.438,17.619v10.055c0,9.715-6.926,17.619-15.438,17.619h-2.63     c-8.513,0-15.439-7.904-15.439-17.619V60.328c0-9.715,6.926-17.619,15.439-17.619H51.745 M51.745,41.709h-2.63     c-9.08,0-16.439,8.335-16.439,18.619v10.055c0,10.284,7.36,18.619,16.439,18.619h2.63c9.079,0,16.438-8.335,16.438-18.619V60.328     C68.184,50.045,60.824,41.709,51.745,41.709L51.745,41.709z"></path></g></g><path display="inline" fill="none" stroke="#000000" stroke-miterlimit="10" d="M46.437,42.938c0,0,14.376,9.094,20.766,14.868"></path><path display="inline" fill="none" stroke="#000000" stroke-miterlimit="10" d="M38.081,47.976c0,0,15.238,5.407,29.244,20.643"></path><path display="inline" fill="none" stroke="#000000" stroke-miterlimit="10" d="M34.395,53.873c0,0,19.156,8.601,31.32,24.451"></path><path display="inline" fill="none" stroke="#000000" stroke-miterlimit="10" d="M33.535,62.052c0,0,21.38,10.743,28.752,21.556"></path><path display="inline" fill="none" stroke="#000000" stroke-miterlimit="10" d="M33.535,68.985c0,0,8.355,3.441,21.748,18.186"></path><path display="inline" fill="none" stroke="#000000" stroke-miterlimit="10" d="M54.792,42.938c0,0-14.746,9.461-21.135,15.236"></path><path display="inline" fill="none" stroke="#000000" stroke-miterlimit="10" d="M63.146,47.976c0,0-15.604,5.775-29.611,21.01"></path><path display="inline" fill="none" stroke="#000000" stroke-miterlimit="10" d="M66.337,54.099c0,0-19.164,8.375-31.328,24.226"></path><path display="inline" fill="none" stroke="#000000" stroke-miterlimit="10" d="M67.324,62.352c0,0-21.134,10.812-28.505,21.624"></path><path display="inline" fill="none" stroke="#000000" stroke-miterlimit="10" d="M67.202,69.108c0,0-8.355,4.056-21.749,18.799"></path><path display="inline" fill="#000000" stroke="#000000" stroke-miterlimit="10" d="M52.278,25.57l-5.512-1.193   c0,0,4.043-17.405,18.099-12.798C64.865,11.579,53.842,14.308,52.278,25.57z"></path><path display="inline" fill="#000000" stroke="#000000" stroke-miterlimit="10" d="M48.515,27.15l5.514-1.194   c0,0-4.044-17.405-18.101-12.798C35.929,13.158,46.954,15.888,48.515,27.15z"></path><path display="inline" fill="#000000" stroke="#000000" stroke-miterlimit="10" d="M54.555,34.132l-6.508-1.411   c0,0,4.772-20.544,21.365-15.105C69.412,17.616,56.397,20.839,54.555,34.132z"></path><path display="inline" fill="#000000" stroke="#000000" stroke-miterlimit="10" d="M45.443,35.015l6.508-1.41   c0,0-4.772-20.545-21.366-15.106C30.585,18.499,43.601,21.721,45.443,35.015z"></path><path display="inline" fill="#000000" stroke="#000000" stroke-miterlimit="10" d="M54.915,39.714l-7.373-1.265   c0,0,5.407-18.435,24.205-13.555C71.747,24.894,57.004,27.786,54.915,39.714z"></path><path display="inline" fill="#000000" stroke="#000000" stroke-miterlimit="10" d="M44.593,41.34l7.372-1.265   c0,0-5.406-18.435-24.205-13.555C27.76,26.521,42.504,29.412,44.593,41.34z"></path><path display="inline" fill="#000000" stroke="#000000" stroke-miterlimit="10" d="M56.143,42.569l-7.372-0.86   c0,0,5.406-12.533,24.206-9.215C72.977,32.495,58.231,34.46,56.143,42.569z"></path><path display="inline" fill="#000000" stroke="#000000" stroke-miterlimit="10" d="M43.855,43.06l7.373-0.859   c0,0-5.407-12.165-24.206-8.847C27.023,33.354,41.768,35.32,43.855,43.06z"></path></g><g display="none"><circle display="inline" fill="none" stroke="#000000" stroke-miterlimit="10" cx="50" cy="55.099" r="27.646"></circle><circle display="inline" fill="none" stroke="#000000" stroke-miterlimit="10" cx="50" cy="55.099" r="25.324"></circle><line display="inline" fill="none" stroke="#000000" stroke-miterlimit="10" x1="27.275" y1="44.926" x2="73.019" y2="44.926"></line><line display="inline" fill="none" stroke="#000000" stroke-miterlimit="10" x1="28.712" y1="41.166" x2="71.287" y2="41.166"></line><line display="inline" fill="none" stroke="#000000" stroke-miterlimit="10" x1="26.965" y1="65.384" x2="72.946" y2="65.384"></line><line display="inline" fill="none" stroke="#000000" stroke-miterlimit="10" x1="28.602" y1="68.812" x2="70.955" y2="68.812"></line><rect x="41.098" y="17.06" display="inline" fill="none" stroke="#000000" stroke-miterlimit="10" width="15.924" height="6.745"></rect><line display="inline" fill="none" stroke="#000000" stroke-miterlimit="10" x1="43.973" y1="23.251" x2="43.973" y2="17.169"></line><line display="inline" fill="none" stroke="#000000" stroke-miterlimit="10" x1="47.29" y1="23.251" x2="47.29" y2="17.501"></line><line display="inline" fill="none" stroke="#000000" stroke-miterlimit="10" x1="50.497" y1="23.141" x2="50.497" y2="17.501"></line><line display="inline" fill="none" stroke="#000000" stroke-miterlimit="10" x1="54.147" y1="23.362" x2="54.147" y2="17.391"></line><polygon display="inline" fill="none" stroke="#000000" stroke-miterlimit="10" points="43.641,59.485 49.557,49.239    55.475,59.485  "></polygon><line display="inline" fill="none" stroke="#000000" stroke-miterlimit="10" x1="43.641" y1="27.785" x2="43.641" y2="24.136"></line><line display="inline" fill="none" stroke="#000000" stroke-miterlimit="10" x1="54.258" y1="27.343" x2="54.258" y2="24.247"></line></g><g display="none"><path display="inline" fill="#000000" stroke="#000000" stroke-miterlimit="10" d="M9.215,51.333   c0-9.005,4.769-16.768,17.383-16.614c9.004,0.111,16.306,7.301,16.306,16.307c0,9.007-7.301,16.307-16.306,16.307   C17.593,67.332,9.215,60.34,9.215,51.333"></path><path display="inline" fill="none" stroke="#000000" stroke-miterlimit="10" d="M9.215,51.333c0-9.005,4.769-16.768,17.383-16.614   c9.004,0.111,16.306,7.301,16.306,16.307c0,9.007-7.301,16.307-16.306,16.307C17.593,67.332,9.215,60.34,9.215,51.333z"></path><path display="inline" fill="#000000" stroke="#000000" stroke-miterlimit="10" d="M9.215,51.333   c0-9.005,4.769-16.768,17.383-16.614c9.004,0.111,16.306,7.301,16.306,16.307c0,9.007-7.301,16.307-16.306,16.307   C17.593,67.332,9.215,60.34,9.215,51.333"></path><path display="inline" fill="none" stroke="#000000" stroke-miterlimit="10" d="M9.215,51.333c0-9.005,4.769-16.768,17.383-16.614   c9.004,0.111,16.306,7.301,16.306,16.307c0,9.007-7.301,16.307-16.306,16.307C17.593,67.332,9.215,60.34,9.215,51.333z"></path><path display="inline" fill="#000000" stroke="#000000" stroke-miterlimit="10" d="M94.938,36.719c0,0-0.615-1.384-2.308-1.692   c-1.692-0.307-14.307-2.923-17.999-2.307c-3.691,0.615-9.691,0.154-15.69,6.769c0,0-0.89,0.712-1.861,1.915   c-0.438,0.026-0.878,0.044-1.354-0.068c-0.615-0.146-1.181-0.36-1.744-0.562c-1.381-0.492-2.705-0.612-4.19-0.618   c-1.387-0.006-2.801,0.447-4.075,0.87c-0.535,0.178-1.053,0.441-1.621,0.463c-0.305,0.012-0.585,0.002-0.863,0.008   c-1.085-1.442-2.172-2.315-2.172-2.315c-6-6.615-12-6.153-15.692-6.769c-3.691-0.615-16.305,2-17.998,2.308   c-1.692,0.307-2.308,1.692-2.308,1.692s-0.153,6,0.616,6.769s1.846,11.076,1.846,11.076L9.37,54.41L41.264,56   c1.076,0.461,2.564-0.462,3.487-2.359s0.615-6,0.615-6c0.016-0.233,0.016-0.464,0.009-0.692c0.39-0.683,1.333-1.482,1.899-1.732   c0.865-0.384,2.011-0.523,2.964-0.436c0.931,0.086,1.928,0.144,2.822,0.449c0.566,0.194,0.974,0.638,1.279,1.167   c0.093,0.161,0.197,0.344,0.303,0.541c-0.025,0.33-0.032,0.667-0.01,1.011c0,0-0.308,4.103,0.615,6   c0.924,1.896,2.41,2.82,3.487,2.358l31.895-1.59l1.846-0.154c0,0,1.077-10.306,1.847-11.076S94.938,36.719,94.938,36.719"></path><path display="inline" fill="none" stroke="#000000" stroke-miterlimit="10" d="M94.938,36.719c0,0-0.615-1.384-2.308-1.692   c-1.692-0.307-14.307-2.923-17.999-2.307c-3.691,0.615-9.691,0.154-15.69,6.769c0,0-0.89,0.712-1.861,1.915   c-0.438,0.026-0.878,0.044-1.354-0.068c-0.615-0.146-1.181-0.36-1.744-0.562c-1.381-0.492-2.705-0.612-4.19-0.618   c-1.387-0.006-2.801,0.447-4.075,0.87c-0.535,0.178-1.053,0.441-1.621,0.463c-0.305,0.012-0.585,0.002-0.863,0.008   c-1.085-1.442-2.172-2.315-2.172-2.315c-6-6.615-12-6.153-15.692-6.769c-3.691-0.615-16.305,2-17.998,2.308   c-1.692,0.307-2.308,1.692-2.308,1.692s-0.153,6,0.616,6.769s1.846,11.076,1.846,11.076L9.37,54.41L41.264,56   c1.076,0.461,2.564-0.462,3.487-2.359s0.615-6,0.615-6c0.016-0.233,0.016-0.464,0.009-0.692c0.39-0.683,1.333-1.482,1.899-1.732   c0.865-0.384,2.011-0.523,2.964-0.436c0.931,0.086,1.928,0.144,2.822,0.449c0.566,0.194,0.974,0.638,1.279,1.167   c0.093,0.161,0.197,0.344,0.303,0.541c-0.025,0.33-0.032,0.667-0.01,1.011c0,0-0.308,4.103,0.615,6   c0.924,1.896,2.41,2.82,3.487,2.358l31.895-1.59l1.846-0.154c0,0,1.077-10.306,1.847-11.076S94.938,36.719,94.938,36.719z"></path><path display="inline" fill="#000000" stroke="#000000" stroke-miterlimit="10" d="M9.215,51.333   c0-9.005,4.769-16.768,17.383-16.614c9.004,0.111,16.306,7.301,16.306,16.307c0,9.007-7.301,16.307-16.306,16.307   C17.593,67.332,9.215,60.34,9.215,51.333"></path><path display="inline" fill="none" stroke="#000000" stroke-miterlimit="10" d="M9.215,51.333c0-9.005,4.769-16.768,17.383-16.614   c9.004,0.111,16.306,7.301,16.306,16.307c0,9.007-7.301,16.307-16.306,16.307C17.593,67.332,9.215,60.34,9.215,51.333z"></path><path display="inline" fill="#000000" stroke="#000000" stroke-miterlimit="10" d="M91.055,51.486   c0-9.004-4.769-16.767-17.383-16.613c-9.006,0.11-16.307,7.301-16.307,16.307s7.3,16.306,16.307,16.306   C82.678,67.485,91.055,60.493,91.055,51.486"></path><path display="inline" fill="none" stroke="#000000" stroke-miterlimit="10" d="M91.055,51.486c0-9.004-4.769-16.767-17.383-16.613   c-9.006,0.11-16.307,7.301-16.307,16.307s7.3,16.306,16.307,16.306C82.678,67.485,91.055,60.493,91.055,51.486z"></path></g><g display="none"><path display="inline" fill="none" stroke="#000000" stroke-miterlimit="10" d="M51.182,80.632L51.182,80.632   c-9.408,0-19.933-16.607-20.042-26.287c-0.108-9.681,10.634-15.8,20.042-15.8l0,0c9.409,0,20.184,5.676,20.184,14.701   C71.365,62.271,60.591,80.632,51.182,80.632z"></path><line display="inline" fill="none" stroke="#000000" stroke-miterlimit="10" x1="51.182" y1="80.632" x2="51.182" y2="38.544"></line><path display="inline" fill="none" stroke="#000000" stroke-miterlimit="10" d="M51.182,38.544c-25.942,11.693,0,42.087,0,42.087"></path><path display="inline" fill="none" stroke="#000000" stroke-miterlimit="10" d="M51.155,38.544   c28.723,11.955-0.001,42.087-0.001,42.087"></path><path display="inline" fill="none" stroke="#000000" stroke-miterlimit="10" d="M56.755,36.242c0,1.136-1.291,2.058-2.884,2.058   h-6.035c-1.593,0-2.883-0.921-2.883-2.058v-3.99c0-1.136,1.291-2.058,2.883-2.058h6.035c1.593,0,2.884,0.922,2.884,2.058V36.242z"></path><path display="inline" fill="none" stroke="#000000" stroke-miterlimit="10" d="M47,22.638c0,0.22-0.285,0.397-0.636,0.397h-2.767   c-0.351,0-0.636-0.177-0.636-0.397v-1.724c0-0.219,0.285-0.397,0.636-0.397h2.767c0.351,0,0.636,0.178,0.636,0.397V22.638z"></path><ellipse transform="matrix(0.9752 -0.2215 0.2215 0.9752 -12.2951 5.2509)" display="inline" fill="none" stroke="#000000" stroke-miterlimit="10" cx="17.26" cy="57.435" rx="6.93" ry="9.717"></ellipse><path display="inline" fill="none" stroke="#000000" stroke-miterlimit="10" d="M15.107,47.958   c0-14.358,14.787-26.182,27.854-26.182"></path><path display="inline" fill="none" stroke="#000000" stroke-miterlimit="10" d="M54.244,26.898c0,0.455-0.369,0.824-0.824,0.824   h-4.532c-0.455,0-0.825-0.369-0.825-0.824V16.485c0-0.455,0.37-0.824,0.825-0.824h4.532c0.455,0,0.824,0.369,0.824,0.824V26.898z"></path><rect x="49.358" y="27.722" display="inline" fill="#000000" stroke="#000000" stroke-miterlimit="10" width="3.812" height="2.472"></rect><path display="inline" fill="none" stroke="#000000" stroke-miterlimit="10" d="M58.869,82.624c0,0.839-0.527,1.52-1.176,1.52   H44.672c-0.65,0-1.176-0.681-1.176-1.52l0,0c0-0.84,0.526-1.521,1.176-1.521h13.021C58.342,81.104,58.869,81.784,58.869,82.624   L58.869,82.624z"></path></g><g display="none"><g display="inline"><path d="M50,23.687c14.477,0,26.215,11.737,26.215,26.215c0,14.481-11.738,26.217-26.215,26.217    c-14.48,0-26.217-11.735-26.217-26.217C23.784,35.424,35.52,23.687,50,23.687 M50,22.687c-15.007,0-27.217,12.208-27.217,27.215    c0,15.008,12.209,27.217,27.217,27.217c15.006,0,27.215-12.209,27.215-27.217C77.216,34.895,65.007,22.687,50,22.687L50,22.687z"></path></g><g display="inline"><path fill="none" stroke="#000000" stroke-miterlimit="10" d="M70.138,57.812c0.914-2.267,3.244-4.177,3.405-6.49    c0.166-2.397-1.903-4.615-2.477-6.897c-0.578-2.305,0.192-5.235-1.066-7.25c-1.246-1.996-4.208-2.588-6.05-4.131    c-1.777-1.489-2.86-4.319-5.127-5.233c-2.267-0.914-5.011,0.375-7.324,0.214c-2.396-0.166-4.941-1.794-7.223-1.222    c-2.305,0.578-3.781,3.224-5.796,4.482c-1.996,1.247-5.025,1.408-6.567,3.25c-1.489,1.777-1.136,4.77-2.05,7.036    c-0.914,2.267-3.244,4.178-3.404,6.491c-0.167,2.397,1.903,4.615,2.476,6.897c0.578,2.305-0.193,5.234,1.066,7.25    c1.247,1.995,4.209,2.587,6.051,4.13c1.777,1.488,2.86,4.32,5.126,5.234s5.011-0.374,7.324-0.214    c2.397,0.166,4.942,1.794,7.224,1.222c2.305-0.578,3.781-3.223,5.796-4.482c1.996-1.246,5.025-1.407,6.568-3.249    C69.577,63.072,69.224,60.079,70.138,57.812z"></path></g><g display="inline"><path d="M50,41.74c4.383,0,7.95,3.567,7.95,7.952c0,4.384-3.566,7.951-7.95,7.951c-4.384,0-7.951-3.566-7.951-7.951    C42.05,45.307,45.617,41.74,50,41.74 M50,40.74c-4.944,0-8.951,4.009-8.951,8.952s4.007,8.951,8.951,8.951    c4.943,0,8.95-4.008,8.95-8.951S54.943,40.74,50,40.74L50,40.74z"></path></g><g display="inline"><line fill="none" stroke="#000000" stroke-miterlimit="10" x1="40" y1="44.607" x2="42.247" y2="41.373"></line><line fill="none" stroke="#000000" stroke-miterlimit="10" x1="35.339" y1="39.966" x2="39.214" y2="39.269"></line><line fill="none" stroke="#000000" stroke-miterlimit="10" x1="54.209" y1="66.973" x2="56.387" y2="64.04"></line><line fill="none" stroke="#000000" stroke-miterlimit="10" x1="34.251" y1="50.265" x2="37.735" y2="49.162"></line><line fill="none" stroke="#000000" stroke-miterlimit="10" x1="44.495" y1="34.791" x2="48.149" y2="37.439"></line><line fill="none" stroke="#000000" stroke-miterlimit="10" x1="61.358" y1="44.607" x2="64.31" y2="47.275"></line><line fill="none" stroke="#000000" stroke-miterlimit="10" x1="64.273" y1="39.741" x2="68.153" y2="40.624"></line><line fill="none" stroke="#000000" stroke-miterlimit="10" x1="66.212" y1="52.854" x2="69.524" y2="50.648"></line><line fill="none" stroke="#000000" stroke-miterlimit="10" x1="65.935" y1="60.563" x2="68.405" y2="57.444"></line><line fill="none" stroke="#000000" stroke-miterlimit="10" x1="68.95" y1="47.275" x2="66.787" y2="43.935"></line><line fill="none" stroke="#000000" stroke-miterlimit="10" x1="47.758" y1="65.445" x2="51.247" y2="63.533"></line><line fill="none" stroke="#000000" stroke-miterlimit="10" x1="45.218" y1="61.323" x2="41.24" y2="61.269"></line><line fill="none" stroke="#000000" stroke-miterlimit="10" x1="44.099" y1="67.052" x2="47.105" y2="69.659"></line><line fill="none" stroke="#000000" stroke-miterlimit="10" x1="34.42" y1="62.762" x2="37.708" y2="60.52"></line><line fill="none" stroke="#000000" stroke-miterlimit="10" x1="35.659" y1="54.272" x2="38.894" y2="56.59"></line><line fill="none" stroke="#000000" stroke-miterlimit="10" x1="30.914" y1="52.309" x2="31.562" y2="56.235"></line><line fill="none" stroke="#000000" stroke-miterlimit="10" x1="31.12" y1="43.675" x2="34.312" y2="46.053"></line><line fill="none" stroke="#000000" stroke-miterlimit="10" x1="35.499" y1="35.292" x2="33.712" y2="38.848"></line><line fill="none" stroke="#000000" stroke-miterlimit="10" x1="60.736" y1="37.069" x2="58.95" y2="40.625"></line><line fill="none" stroke="#000000" stroke-miterlimit="10" x1="54.904" y1="39.618" x2="51.746" y2="37.196"></line><line fill="none" stroke="#000000" stroke-miterlimit="10" x1="56.952" y1="35.791" x2="55.918" y2="31.948"></line><line fill="none" stroke="#000000" stroke-miterlimit="10" x1="49.983" y1="32.511" x2="46.316" y2="30.964"></line><line fill="none" stroke="#000000" stroke-miterlimit="10" x1="41.529" y1="31.437" x2="40.215" y2="35.193"></line><line fill="none" stroke="#000000" stroke-miterlimit="10" x1="62.834" y1="49.901" x2="62.834" y2="53.786"></line><line fill="none" stroke="#000000" stroke-miterlimit="10" x1="63.747" y1="58.019" x2="58.95" y2="57.205"></line><line fill="none" stroke="#000000" stroke-miterlimit="10" x1="58.95" y1="61.327" x2="62.834" y2="63.296"></line></g></g><g display="none"><path display="inline" fill="none" stroke="#000000" stroke-miterlimit="10" d="M59.372,32.122   c-0.78-5.109-5.931-8.388-12.184-8.388c-6.253,0-11.403,3.278-12.184,8.388H59.372z"></path><circle display="inline" fill="none" stroke="#000000" stroke-miterlimit="10" cx="47.188" cy="19.348" r="2.098"></circle><line display="inline" fill="none" stroke="#000000" stroke-miterlimit="10" x1="35.004" y1="63.694" x2="59.372" y2="63.694"></line><rect x="33.364" y="74.832" display="inline" fill="none" stroke="#000000" stroke-miterlimit="10" width="27.114" height="7.721"></rect><line display="inline" fill="none" stroke="#000000" stroke-miterlimit="10" x1="35.004" y1="59.86" x2="59.372" y2="59.86"></line><polyline display="inline" fill="none" stroke="#000000" stroke-miterlimit="10" points="58.818,31.834 58.818,74.832    35.004,74.832 35.004,31.834  "></polyline><path display="inline" fill="none" stroke="#000000" stroke-miterlimit="10" d="M58.818,34.059c0-0.596,0.512-1.079,1.144-1.079   h6.959c0.633,0,1.144,0.483,1.144,1.079v38.953c0,0.596-0.511,1.079-1.144,1.079h-6.959c-0.632,0-1.144-0.483-1.144-1.079"></path><path display="inline" fill="none" stroke="#000000" stroke-miterlimit="10" d="M35.004,32.503c0,0-3.069,0.19-3.069,1.048   s3.069,1.383,3.069,1.383"></path><line display="inline" fill="none" stroke="#000000" stroke-miterlimit="10" x1="47.188" y1="21.447" x2="47.188" y2="23.734"></line><line display="inline" fill="none" stroke="#000000" stroke-miterlimit="10" x1="47.188" y1="59.86" x2="47.188" y2="31.834"></line><rect x="35.445" y="63.694" display="inline" fill="#000000" stroke="#000000" stroke-miterlimit="10" width="22.897" height="10.596"></rect></g><g display="none"><path display="inline" fill="#000000" stroke="#000000" stroke-miterlimit="10" d="M20.986,81.113   c0,4.474,12.23,8.101,27.316,8.101c15.085,0,27.314-3.627,27.314-8.101c0-4.473-12.229-8.099-27.314-8.099   C33.216,73.015,20.986,76.641,20.986,81.113"></path><path display="inline" fill="#000000" stroke="#000000" stroke-miterlimit="10" d="M54.412,26.844   c-13.588,0-24.603,3.129-24.603,6.987c0,0.412,3.581,47.266,3.581,47.46c0,3.53,8.597,6.392,21.022,6.392   c12.426,0,21.141-2.861,21.141-6.392c0-0.116,3.461-47.048,3.461-47.46C79.014,29.973,68,26.844,54.412,26.844"></path><path display="inline" fill="none" stroke="#000000" stroke-miterlimit="10" d="M54.412,26.844   c-13.588,0-24.603,3.129-24.603,6.987c0,0.412,3.581,47.266,3.581,47.46c0,3.53,8.597,6.392,21.022,6.392   c12.426,0,21.141-2.861,21.141-6.392c0-0.116,3.461-47.048,3.461-47.46C79.014,29.973,68,26.844,54.412,26.844z"></path><path display="inline" fill="#000000" stroke="#000000" stroke-miterlimit="10" d="M76.716,34.439   c0,2.451-10.028,4.438-22.399,4.438c-12.37,0-22.398-1.987-22.398-4.438c0-2.452,10.366-5.521,22.735-5.521   C67.023,28.918,76.716,31.987,76.716,34.439"></path><path display="inline" fill="none" stroke="#000000" stroke-miterlimit="10" d="M76.716,34.439c0,2.451-10.028,4.438-22.399,4.438   c-12.37,0-22.398-1.987-22.398-4.438c0-2.452,10.366-5.521,22.735-5.521C67.023,28.918,76.716,31.987,76.716,34.439z"></path><path display="inline" fill="#000000" stroke="#000000" stroke-miterlimit="10" d="M40.332,69.63   c11.854,0,34.192,0.354,34.192,5.269"></path><path display="inline" fill="none" stroke="#000000" stroke-miterlimit="10" d="M40.332,69.63c11.854,0,34.192,0.354,34.192,5.269"></path><rect x="57.421" y="62.038" transform="matrix(0.9903 0.1389 -0.1389 0.9903 10.0232 -8.0696)" display="inline" fill="#000000" stroke="#000000" stroke-miterlimit="10" width="10.79" height="11.452"></rect><rect x="57.421" y="62.038" transform="matrix(0.9903 0.1389 -0.1389 0.9903 10.0232 -8.0696)" display="inline" fill="none" stroke="#000000" stroke-miterlimit="10" width="10.79" height="11.452"></rect><polygon display="inline" fill="#000000" stroke="#000000" stroke-miterlimit="10" points="51.573,74.897 56.893,72.716    67.364,74.184 62.045,76.366  "></polygon><polygon display="inline" fill="none" stroke="#000000" stroke-miterlimit="10" points="51.573,74.897 56.893,72.716    67.364,74.184 62.045,76.366  "></polygon><polyline display="inline" fill="#000000" stroke="#000000" stroke-miterlimit="10" points="68.956,62.844 58.27,61.345    52.951,63.528 63.281,64.976  "></polyline><polyline display="inline" fill="none" stroke="#000000" stroke-miterlimit="10" points="68.956,62.844 58.27,61.345    52.951,63.528 63.281,64.976  "></polyline><polygon display="inline" fill="#000000" stroke="#000000" stroke-miterlimit="10" points="56.66,72.81 57.867,64.217    52.951,63.528 51.572,74.897  "></polygon><polygon display="inline" fill="none" stroke="#000000" stroke-miterlimit="10" points="56.66,72.81 57.867,64.217 52.951,63.528    51.572,74.897  "></polygon><rect x="52.103" y="64.221" transform="matrix(0.9903 0.1388 -0.1388 0.9903 10.267 -7.3048)" display="inline" fill="#000000" stroke="#000000" stroke-miterlimit="10" width="10.791" height="11.452"></rect><rect x="52.103" y="64.221" transform="matrix(0.9903 0.1388 -0.1388 0.9903 10.267 -7.3048)" display="inline" fill="none" stroke="#000000" stroke-miterlimit="10" width="10.791" height="11.452"></rect><polygon display="inline" fill="#000000" stroke="#000000" stroke-miterlimit="10" points="63.637,65.026 68.956,62.844    67.364,74.185 62.045,76.366  "></polygon><polygon display="inline" fill="none" stroke="#000000" stroke-miterlimit="10" points="63.637,65.026 68.956,62.844    67.364,74.185 62.045,76.366  "></polygon><rect x="46.574" y="61.061" transform="matrix(0.9952 -0.0979 0.0979 0.9952 -6.291 5.4106)" display="inline" fill="#000000" stroke="#000000" stroke-miterlimit="10" width="10.789" height="11.453"></rect><rect x="46.574" y="61.061" transform="matrix(0.9952 -0.0979 0.0979 0.9952 -6.291 5.4106)" display="inline" fill="none" stroke="#000000" stroke-miterlimit="10" width="10.789" height="11.453"></rect><polygon display="inline" fill="#000000" stroke="#000000" stroke-miterlimit="10" points="42.719,76.366 47.376,72.993    57.898,71.958 53.243,75.331  "></polygon><polygon display="inline" fill="none" stroke="#000000" stroke-miterlimit="10" points="42.719,76.366 47.376,72.993    57.898,71.958 53.243,75.331  "></polygon><polyline display="inline" fill="#000000" stroke="#000000" stroke-miterlimit="10" points="56.777,60.561 46.038,61.617    41.382,64.991 51.765,63.969  "></polyline><polyline display="inline" fill="none" stroke="#000000" stroke-miterlimit="10" points="56.777,60.561 46.038,61.617    41.382,64.991 51.765,63.969  "></polyline><polygon display="inline" fill="#000000" stroke="#000000" stroke-miterlimit="10" points="47.173,73.14 46.323,64.505    41.382,64.991 42.719,76.366  "></polygon><polygon display="inline" fill="none" stroke="#000000" stroke-miterlimit="10" points="47.173,73.14 46.323,64.505 41.382,64.991    42.719,76.366  "></polygon><rect x="41.917" y="64.435" transform="matrix(0.9952 -0.0979 0.0979 0.9952 -6.6424 4.9697)" display="inline" fill="#000000" stroke="#000000" stroke-miterlimit="10" width="10.792" height="11.452"></rect><rect x="41.917" y="64.435" transform="matrix(0.9952 -0.0979 0.0979 0.9952 -6.6424 4.9697)" display="inline" fill="none" stroke="#000000" stroke-miterlimit="10" width="10.792" height="11.452"></rect><polygon display="inline" fill="#000000" stroke="#000000" stroke-miterlimit="10" points="52.121,63.934 56.777,60.561    57.898,71.958 53.244,75.331  "></polygon><polygon display="inline" fill="none" stroke="#000000" stroke-miterlimit="10" points="52.121,63.934 56.777,60.561    57.898,71.958 53.244,75.331  "></polygon><path display="inline" fill="none" stroke="#000000" stroke-miterlimit="10" d="M33.776,43.425l2.957,31.473   c0,2.873,6.264,5.04,17.129,5.04c10.867,0,20.662-2.167,20.662-5.04"></path><line display="inline" fill="none" stroke="#000000" stroke-miterlimit="10" x1="74.846" y1="40.983" x2="74.203" y2="49.724"></line></g><g display="none"><path display="inline" fill="none" stroke="#000000" stroke-miterlimit="10" d="M61.203,47.84c0.01-0.179,0.016-0.358,0.016-0.541   c0-3.901-2.464-7.283-6.067-8.963v-8.716v-0.684l-1.601-6.136l-0.048-2.527c0,0,1.291-1.575,1.291-2.654   c0-1.163-0.606-2.188-1.533-2.795c0.72-0.151,1.262-0.756,1.262-1.482c0-0.84-0.722-1.522-1.609-1.522h-5.892   c-0.888,0-1.61,0.682-1.61,1.522c0,0.736,0.554,1.349,1.288,1.489c-0.876,0.613-1.452,1.609-1.452,2.736   c0,1.109,0.556,2.09,1.408,2.706l-0.247,2.527l-1.61,6.136v0.648v8.768c-3.585,1.686-6.035,5.058-6.035,8.947   c0,0.213,0.01,0.424,0.023,0.636c-0.01,0.081-0.023,0.161-0.023,0.246v37.968c0,1.012,0.809,1.834,1.803,1.834h18.868   c0.995,0,1.804-0.822,1.804-1.834V48.181C61.237,48.065,61.224,47.951,61.203,47.84z"></path><path display="inline" fill="none" stroke="#000000" stroke-miterlimit="10" d="M58.373,52.503c0-2.756-3.699-4.994-8.261-4.994   c-4.562,0-8.261,2.237-8.261,4.994"></path><line display="inline" fill="none" stroke="#000000" stroke-miterlimit="10" x1="41.745" y1="52.781" x2="38.831" y2="52.781"></line><line display="inline" fill="none" stroke="#000000" stroke-miterlimit="10" x1="38.901" y1="74.664" x2="61.029" y2="74.664"></line><line display="inline" fill="none" stroke="#000000" stroke-miterlimit="10" x1="45.421" y1="26.194" x2="54.23" y2="26.194"></line><line display="inline" fill="none" stroke="#000000" stroke-miterlimit="10" x1="44.866" y1="33.478" x2="50.207" y2="35.766"></line><line display="inline" fill="none" stroke="#000000" stroke-miterlimit="10" x1="50.207" y1="35.766" x2="55.133" y2="33.478"></line><line display="inline" fill="none" stroke="#000000" stroke-miterlimit="10" x1="58.373" y1="52.503" x2="61.169" y2="52.503"></line></g><g display="none"><polygon display="inline" fill="#000000" stroke="#000000" stroke-miterlimit="10" points="57.353,75.804 42.63,75.805    49.654,88.976  "></polygon><polygon display="inline" fill="none" stroke="#000000" stroke-miterlimit="10" points="57.353,75.804 42.63,75.805 49.654,88.976     "></polygon><polygon display="inline" fill="#000000" stroke="#000000" stroke-miterlimit="10" points="47.619,84.906 51.783,84.904    49.701,88.05  "></polygon><path display="inline" fill="#000000" stroke="#000000" stroke-miterlimit="10" d="M50.788,85.44l-1.087,1.641l-1.086-1.641H50.788   z M52.778,84.369l-6.154,0.002l3.078,4.646L52.778,84.369z"></path><rect x="42.616" y="23.751" display="inline" fill="#000000" stroke="#000000" stroke-miterlimit="10" width="14.768" height="52.178"></rect><rect x="42.616" y="23.751" display="inline" fill="none" stroke="#000000" stroke-miterlimit="10" width="14.768" height="52.178"></rect><rect x="42.616" y="10.787" display="inline" fill="#000000" stroke="#000000" stroke-miterlimit="10" width="14.768" height="9.287"></rect><rect x="42.616" y="10.787" display="inline" fill="none" stroke="#000000" stroke-miterlimit="10" width="14.768" height="9.287"></rect><line display="inline" fill="#000000" stroke="#000000" stroke-miterlimit="10" x1="45.397" y1="13.88" x2="48.047" y2="13.879"></line><line display="inline" fill="none" stroke="#000000" stroke-miterlimit="10" x1="45.397" y1="13.88" x2="48.047" y2="13.879"></line><line display="inline" fill="#000000" stroke="#000000" stroke-miterlimit="10" x1="47.43" y1="75.804" x2="47.43" y2="23.878"></line><line display="inline" fill="none" stroke="#000000" stroke-miterlimit="10" x1="47.43" y1="75.804" x2="47.43" y2="23.878"></line><line display="inline" fill="#000000" stroke="#000000" stroke-miterlimit="10" x1="53.053" y1="75.804" x2="53.052" y2="23.878"></line><line display="inline" fill="none" stroke="#000000" stroke-miterlimit="10" x1="53.053" y1="75.804" x2="53.052" y2="23.878"></line><rect x="42.616" y="20.074" display="inline" fill="#000000" stroke="#000000" stroke-miterlimit="10" width="14.768" height="3.677"></rect><rect x="42.616" y="20.074" display="inline" fill="none" stroke="#000000" stroke-miterlimit="10" width="14.768" height="3.677"></rect></g><g display="none"><polygon display="inline" fill="none" stroke="#000000" stroke-miterlimit="10" points="77.342,71.301 77.342,71.301    22.733,71.301 22.733,71.301 22.733,33.226 22.733,33.226 77.342,33.226 77.342,33.226  "></polygon><circle display="inline" fill="none" stroke="#000000" stroke-miterlimit="10" cx="51.999" cy="55.114" r="12.426"></circle><g display="inline"><g><path d="M51.836,46.448c4.785,0,8.666,3.88,8.666,8.666s-3.881,8.666-8.666,8.666c-4.787,0-8.667-3.88-8.667-8.666     S47.049,46.448,51.836,46.448 M51.836,45.448c-5.33,0-9.667,4.336-9.667,9.666s4.336,9.666,9.667,9.666s9.666-4.336,9.666-9.666     S57.166,45.448,51.836,45.448L51.836,45.448z"></path></g></g><path display="inline" fill="none" stroke="#000000" stroke-miterlimit="10" d="M56.17,55.115c0,1.451-1.177,2.628-2.629,2.628   h-3.082c-1.452,0-2.629-1.177-2.629-2.628l0,0c0-1.452,1.177-2.629,2.629-2.629h3.082C54.993,52.486,56.17,53.663,56.17,55.115   L56.17,55.115z"></path><rect x="26.002" y="41.544" display="inline" fill="none" stroke="#000000" stroke-miterlimit="10" width="9.647" height="5.068"></rect><polyline display="inline" fill="none" stroke="#000000" stroke-miterlimit="10" points="75.861,33.404 75.861,29.928    65.561,29.928 65.561,33.404  "></polyline><line display="inline" fill="none" stroke="#000000" stroke-miterlimit="10" x1="22.658" y1="38.353" x2="77.091" y2="38.353"></line><polyline display="inline" fill="none" stroke="#000000" stroke-miterlimit="10" points="31.644,33.342 31.644,28.503    28.533,28.503 28.533,33.342  "></polyline></g><g display="none"><polygon display="inline" fill="#000000" stroke="#000000" stroke-miterlimit="10" points="33.085,33.368 21.811,42.258    50.044,70.902 78.19,42.17 66.612,33.334  "></polygon><line display="inline" fill="#000000" stroke="#000000" stroke-miterlimit="10" x1="22.161" y1="42.307" x2="77.839" y2="42.315"></line><line display="inline" fill="#000000" stroke="#000000" stroke-miterlimit="10" x1="40.458" y1="42.288" x2="45.212" y2="33.381"></line><line display="inline" fill="#000000" stroke="#000000" stroke-miterlimit="10" x1="59.579" y1="42.292" x2="54.79" y2="33.46"></line><polyline display="inline" fill="#000000" stroke="#000000" stroke-miterlimit="10" points="59.579,42.292 50.044,70.902    40.458,42.288  "></polyline></g><g><path d="M57.507,53.553H43.171l-0.002-28.88C43.162,24.52,42.512,5.731,56.874,4.954l0.654-0.035L57.507,53.553z M44.412,52.312   h11.854l0.021-26.954l-0.003-10.565l0.003-8.55C43.81,7.492,44.402,24.482,44.41,24.656l-0.008,0.558L44.412,52.312z"></path></g><g><path fill="#000000" d="M59.369,55.242c0,1.179-0.745,2.137-1.666,2.137H42.297c-0.92,0-1.667-0.958-1.667-2.137   c0-1.182,0.746-2.138,1.667-2.138h15.406C58.624,53.104,59.369,54.061,59.369,55.242z M43.372,90.873   c0,2.964,2.158,5.367,4.819,5.367h4.059c2.663,0,4.817-2.403,4.817-5.367V57.539H43.372V90.873z"></path><path d="M52.249,96.86H48.19c-3,0-5.439-2.686-5.439-5.987V57.999h-0.455c-1.261,0-2.287-1.237-2.287-2.757   c0-1.521,1.025-2.758,2.287-2.758h15.406c1.26,0,2.287,1.237,2.287,2.758c0,1.52-1.027,2.757-2.287,2.757h-0.016v32.874   C57.688,94.175,55.248,96.86,52.249,96.86z M43.992,58.16v32.713c0,2.618,1.883,4.747,4.198,4.747h4.059   c2.314,0,4.197-2.129,4.197-4.747V58.16H43.992z M42.297,53.726c-0.567,0-1.046,0.693-1.046,1.517c0,0.822,0.479,1.516,1.046,1.516   h15.406c0.566,0,1.046-0.693,1.046-1.516c0-0.823-0.479-1.517-1.046-1.517H42.297z"></path></g><g display="none"><g display="inline"><path fill="#000000" stroke="#000000" stroke-miterlimit="10" d="M27.14,33.966c0,0-3.792,7.581-3.792,14.214l3.12,1.382    c0,0-1.619,0.75-1.619-2.921c0-3.672,3.238-12.674,3.238-12.674"></path><g><path fill="#000000" d="M26.847,71.658c-4.028,0-8.893-4.979-8.893-11.16c0-6.183,4.865-11.161,8.893-11.161h3.279v22.321H26.847     z"></path><g><path d="M29.626,49.837v21.321h-2.779c-3.698,0-8.393-4.772-8.393-10.66c0-5.887,4.695-10.661,8.393-10.661H29.626       M30.626,48.837h-1h-2.779c-4.254,0-9.393,5.202-9.393,11.661s5.138,11.66,9.393,11.66h2.779h1v-1V49.837V48.837L30.626,48.837z      "></path></g></g><path fill="#000000" stroke="#000000" stroke-miterlimit="10" d="M27.849,60.711l-1.53,0.638    c-0.483,0.202-5.848-11.55-5.848-11.55c-0.201-0.482,0.027-1.038,0.511-1.239l1.53-0.638c0.483-0.202,1.039,0.026,1.239,0.509    C23.75,48.431,28.331,60.51,27.849,60.711z"></path><g><path fill="#000000" d="M28.798,74.265c-0.798,0-1.448-0.649-1.448-1.447V48.416c0-0.798,0.65-1.447,1.448-1.447h4.264     c0.798,0,1.448,0.649,1.448,1.447v24.401c0,0.798-0.65,1.447-1.448,1.447H28.798z"></path><g><path d="M33.062,47.469c0.524,0,0.948,0.424,0.948,0.947v24.401c0,0.523-0.424,0.947-0.948,0.947h-4.264      c-0.523,0-0.948-0.424-0.948-0.947V48.416c0-0.523,0.425-0.947,0.948-0.947H33.062 M33.062,46.469h-4.264      c-1.074,0-1.948,0.874-1.948,1.947v24.401c0,1.073,0.874,1.947,1.948,1.947h4.264c1.074,0,1.948-0.874,1.948-1.947V48.416      C35.01,47.342,34.136,46.469,33.062,46.469L33.062,46.469z"></path></g></g></g><g display="inline"><path fill="#000000" stroke="#000000" stroke-miterlimit="10" d="M73.427,33.966c0,0,3.791,7.581,3.791,14.214l-3.12,1.382    c0,0,1.619,0.75,1.619-2.921c0-3.672-3.237-12.674-3.237-12.674"></path><g><path fill="#000000" d="M69.874,71.658V49.337h3.279c4.027,0,8.893,4.978,8.893,11.161c0,6.182-4.865,11.16-8.893,11.16H69.874z"></path><g><path d="M73.153,49.837c3.698,0,8.393,4.774,8.393,10.661c0,5.888-4.694,10.66-8.393,10.66h-2.779V49.837H73.153 M73.153,48.837      h-2.779h-1v1v21.321v1h1h2.779c4.254,0,9.393-5.201,9.393-11.66S77.407,48.837,73.153,48.837L73.153,48.837z"></path></g></g><path fill="#000000" stroke="#000000" stroke-miterlimit="10" d="M72.299,60.711l1.531,0.638c0.483,0.202,5.847-11.55,5.847-11.55    c0.201-0.482-0.026-1.038-0.509-1.239l-1.531-0.638c-0.482-0.202-1.037,0.026-1.239,0.509    C76.397,48.431,71.817,60.51,72.299,60.711z"></path><g><path fill="#000000" d="M66.938,74.265c-0.798,0-1.447-0.649-1.447-1.447V48.416c0-0.798,0.649-1.447,1.447-1.447h4.265     c0.798,0,1.447,0.649,1.447,1.447v24.401c0,0.798-0.649,1.447-1.447,1.447H66.938z"></path><g><path d="M71.203,47.469c0.522,0,0.947,0.424,0.947,0.947v24.401c0,0.523-0.425,0.947-0.947,0.947h-4.265      c-0.522,0-0.947-0.424-0.947-0.947V48.416c0-0.523,0.425-0.947,0.947-0.947H71.203 M71.203,46.469h-4.265      c-1.073,0-1.947,0.874-1.947,1.947v24.401c0,1.073,0.874,1.947,1.947,1.947h4.265c1.073,0,1.947-0.874,1.947-1.947V48.416      C73.15,47.342,72.276,46.469,71.203,46.469L71.203,46.469z"></path></g></g></g><path fill="none" stroke="#000000" stroke-miterlimit="10" d="M72.738,33.966c0,0,3.79,7.581,3.79,14.214"></path><path fill="none" stroke="#000000" stroke-miterlimit="10" d="M72.264,33.966c0,0,2.966,9.002,2.966,12.674   c0,3.671-0.597,3.235-0.597,3.235"></path><g display="inline"><path fill="#000000" d="M72.742,33.708c-0.561,0.398-1.42,0.152-1.954-0.501c-10.765-13.205-31.048-13.205-41.812,0    c-0.535,0.655-1.394,0.899-1.954,0.5l0,0c-0.561-0.397-0.565-1.349,0.029-2.076c11.756-14.421,33.907-14.421,45.664,0    C73.306,32.358,73.303,33.311,72.742,33.708L72.742,33.708z"></path><path fill="none" stroke="#000000" stroke-miterlimit="10" d="M72.742,33.708c-0.561,0.398-1.42,0.152-1.954-0.501    c-10.765-13.205-31.048-13.205-41.812,0c-0.535,0.655-1.394,0.899-1.954,0.5l0,0c-0.561-0.397-0.565-1.349,0.029-2.076    c11.756-14.421,33.907-14.421,45.664,0C73.306,32.358,73.303,33.311,72.742,33.708L72.742,33.708z"></path></g><line display="inline" fill="none" stroke="#000000" stroke-miterlimit="10" x1="37.791" y1="61.469" x2="41.917" y2="61.469"></line><line display="inline" fill="none" stroke="#000000" stroke-miterlimit="10" x1="37.047" y1="63.757" x2="39.965" y2="66.674"></line><line display="inline" fill="none" stroke="#000000" stroke-miterlimit="10" x1="37.047" y1="59.245" x2="39.965" y2="56.328"></line><line display="inline" fill="none" stroke="#000000" stroke-miterlimit="10" x1="62.41" y1="61.469" x2="58.283" y2="61.469"></line><line display="inline" fill="none" stroke="#000000" stroke-miterlimit="10" x1="62.781" y1="63.757" x2="59.864" y2="66.674"></line><line display="inline" fill="none" stroke="#000000" stroke-miterlimit="10" x1="62.781" y1="59.245" x2="59.864" y2="56.328"></line></g><g display="none"><path display="inline" fill="#000000" stroke="#000000" stroke-width="0.9796" stroke-linecap="round" stroke-miterlimit="10" d="   M94.319,77.344c0,0-4.165-20.359-11.755-26.468c0,0-2.221-3.146-2.221-5.185v-4.44l-3.979-0.743c0,0-5.46,0.001-6.201,4.814   c-0.739,4.813,3.032,7.661,3.032,7.661l-2.083,1.804c0,0,7.38,12.007,2.196,22.465L94.319,77.344z"></path><path display="inline" fill="#000000" stroke="#000000" stroke-width="0.9796" stroke-linecap="round" stroke-miterlimit="10" d="   M7.752,29.691c-1.211,0.336-2.073,1.19-2.073,2.19c0,1.294,1.439,2.342,3.213,2.342h4.904c0.981,0.55,2.215,1.751,2.215,4.345   l16.398,0.147c0.945,0.773,2.048,1.701,2.266,1.945c0.292,0.327,1.902,2.918,2.067,5.161"></path><path display="inline" fill="#000000" stroke="#000000" stroke-width="0.9796" stroke-linecap="round" stroke-miterlimit="10" d="   M53.83,57.701l1.317,1.18c3.787-1.209,3.31-4.726,3.007-5.848c0.422,0.598,1.799,0.302,2.592,0.068   c-1.402-1.738-3.561-2.965-6.501-3.337c-0.411-0.052-0.808-0.059-1.196-0.044c-0.085,0.366-0.155,0.858-0.123,1.457   c0.07,1.318,2.111,1.301,2.915,2.706C56.952,55.826,53.83,57.701,53.83,57.701z"></path><path display="inline" fill="#000000" stroke="#000000" stroke-width="0.9796" stroke-linecap="round" stroke-miterlimit="10" d="   M70.163,45.322c0.738-4.795,6.157-4.814,6.197-4.814c-0.038-0.02-12.416-6.405-12.759-13.648l-0.085,1.084   c0,0-7.023-2.65-6.194-3.02c-0.589-0.09-1.163-0.148-1.689-0.148H42.306l-1.112,1.109H6.86l0.03,3.804l31.99,0.162V45.6h-2.59   v4.998h6.108c0,0,1.296-0.002,1.667,2.129c0.37,2.128-0.462,12.032,9.996,12.493c11.444,0.508,10.318-4.117,10.365-5.275v-4.811   c0,0,1.232-4.417,6.714-0.371l2.056-1.78C73.195,52.982,69.424,50.135,70.163,45.322z M41.121,45.51V28.837l17.862-0.071   c0,0,0.29-0.01,0.423-0.01c1.645,0,2.335,3.61,2.335,8.216c0,4.604-0.932,8.538-2.576,8.538H41.121z M57.438,63.113   c-3.903,0.411-10.874,0.304-10.897-6.73c-0.011-3.681,3.243-7.181,7.705-6.618c4.581,0.579,7.287,3.218,8.145,6.663   C63.277,60,62.088,62.629,57.438,63.113z"></path><path display="inline" fill="#000000" stroke="#000000" stroke-width="0.9796" stroke-linecap="round" stroke-miterlimit="10" d="   M64.61,23.143l-1.295-0.682l-0.742,1.017l-3.794-0.09c0,0,0.047,1.282-1.372,1.5c-0.046,0.007-0.058,0.024-0.085,0.036   c-0.829,0.37,6.194,3.02,6.194,3.02l0.085-1.084l0.084-1.066C63.686,25.793,66.464,24.669,64.61,23.143z"></path><path display="inline" fill="#000000" stroke="#000000" stroke-width="0.9796" stroke-linecap="round" stroke-miterlimit="10" d="   M41.242,35.203h14.016c0.511,0,0.927,0.843,0.927,1.888c0,1.04-0.416,1.885-0.927,1.885H41.242"></path><path display="inline" fill="#000000" stroke="#000000" stroke-width="0.9796" stroke-linecap="round" stroke-miterlimit="10" d="   M41.121,28.828h13.955c0.524-0.106,0.946,0.939,0.946,1.706c0,0.768-0.417,1.389-0.926,1.389H41.121"></path><path display="inline" fill="#000000" stroke="#000000" stroke-width="0.9796" stroke-linecap="round" stroke-miterlimit="10" d="   M41.18,42.656h14.016c0.512,0,0.929,0.57,0.929,1.274c0,0.703-0.423,1.661-0.947,1.565H41.123L41.18,42.656z"></path><line display="inline" fill="none" stroke="#000000" stroke-width="0.9796" stroke-linecap="round" stroke-miterlimit="10" x1="13.797" y1="34.224" x2="38.865" y2="34.224"></line><line display="inline" fill="none" stroke="#000000" stroke-width="0.9796" stroke-linecap="round" stroke-miterlimit="10" x1="32.41" y1="38.716" x2="38.865" y2="38.716"></line></g></svg>