<svg xmlns="http://www.w3.org/2000/svg" xmlns:xlink="http://www.w3.org/1999/xlink" width="100" height="100" viewBox="0 0 100 100"><g><g transform="translate(50 50) scale(0.69 0.69) rotate(0) translate(-50 -50)" style="fill:#000000"><svg fill="#000000" xmlns="http://www.w3.org/2000/svg" xmlns:xlink="http://www.w3.org/1999/xlink" version="1.1" x="0px" y="0px" viewBox="0 0 100 100" enable-background="new 0 0 100 100" xml:space="preserve"><path d="M62.664,61.64h0.016L42.318,26.371L21.955,61.64h0.017c-1.71,3.219-2.683,6.889-2.683,10.788  c0,12.719,10.31,23.03,23.029,23.03c12.719,0,23.03-10.312,23.03-23.03C65.348,68.529,64.376,64.859,62.664,61.64z M37.996,89.5  c-0.325,0.036-0.719,0.054-1.165,0.014c-0.452-0.017-0.969-0.045-1.514-0.164c-0.275-0.052-0.563-0.107-0.859-0.176  c-0.289-0.09-0.588-0.182-0.895-0.278c-0.626-0.18-1.229-0.493-1.875-0.786c-0.608-0.352-1.263-0.693-1.845-1.153  c-0.618-0.417-1.165-0.936-1.726-1.438c-0.513-0.549-1.05-1.08-1.479-1.683c-0.466-0.573-0.843-1.196-1.203-1.795  c-0.333-0.616-0.643-1.216-0.873-1.813c-0.232-0.596-0.435-1.161-0.561-1.704c-0.15-0.529-0.238-1.037-0.292-1.492  c-0.075-0.447-0.102-0.834-0.1-1.15c-0.011-0.634,0.016-1.006,0.016-1.006s0.223,0.299,0.554,0.841  c0.155,0.278,0.384,0.589,0.609,0.94c0.221,0.353,0.492,0.737,0.791,1.157c0.276,0.427,0.614,0.863,0.952,1.326  c0.332,0.466,0.725,0.926,1.099,1.412c0.406,0.466,0.799,0.96,1.241,1.425c0.418,0.485,0.89,0.93,1.339,1.395  c0.474,0.439,0.936,0.892,1.427,1.295c0.473,0.43,0.982,0.789,1.453,1.183c0.506,0.331,0.963,0.728,1.45,1.011  c0.471,0.318,0.927,0.612,1.368,0.854c0.431,0.272,0.843,0.494,1.217,0.69c0.372,0.2,0.701,0.388,0.984,0.51  c0.56,0.27,0.89,0.461,0.89,0.461S38.642,89.444,37.996,89.5z"></path><path d="M83.301,26.821h0.01L70.685,4.953L58.059,26.821h0.01c-1.061,1.996-1.664,4.271-1.664,6.689  c0,7.886,6.393,14.28,14.279,14.28c7.887,0,14.279-6.394,14.279-14.28C84.965,31.092,84.362,28.817,83.301,26.821z M68.005,44.095  c-0.201,0.023-0.446,0.033-0.723,0.009c-0.28-0.011-0.601-0.028-0.938-0.102c-0.17-0.032-0.349-0.066-0.533-0.109  c-0.179-0.056-0.365-0.113-0.555-0.172c-0.388-0.112-0.762-0.306-1.163-0.488c-0.377-0.218-0.783-0.43-1.144-0.715  c-0.383-0.258-0.722-0.58-1.07-0.892c-0.318-0.341-0.651-0.669-0.917-1.043c-0.289-0.355-0.523-0.742-0.746-1.113  c-0.207-0.382-0.399-0.754-0.541-1.124c-0.144-0.37-0.27-0.72-0.348-1.057c-0.093-0.328-0.147-0.643-0.181-0.925  c-0.047-0.277-0.063-0.517-0.062-0.713c-0.007-0.393,0.01-0.624,0.01-0.624s0.138,0.186,0.343,0.521  c0.096,0.173,0.238,0.365,0.377,0.583c0.137,0.219,0.305,0.457,0.491,0.717c0.171,0.265,0.381,0.535,0.59,0.822  c0.206,0.289,0.449,0.574,0.682,0.875c0.252,0.289,0.495,0.595,0.769,0.884c0.259,0.301,0.552,0.577,0.83,0.865  c0.294,0.272,0.58,0.553,0.885,0.803c0.293,0.267,0.609,0.49,0.901,0.734c0.314,0.205,0.597,0.451,0.899,0.627  c0.292,0.197,0.575,0.379,0.849,0.53c0.267,0.169,0.523,0.306,0.755,0.428c0.231,0.124,0.435,0.241,0.61,0.316  c0.347,0.167,0.552,0.286,0.552,0.286S68.406,44.061,68.005,44.095z"></path></svg></g></g></svg>