<svg xmlns:dc="http://purl.org/dc/elements/1.1/" xmlns:cc="http://creativecommons.org/ns#" xmlns:rdf="http://www.w3.org/1999/02/22-rdf-syntax-ns#" xmlns:svg="http://www.w3.org/2000/svg" xmlns="http://www.w3.org/2000/svg" xmlns:sodipodi="http://sodipodi.sourceforge.net/DTD/sodipodi-0.dtd" xmlns:inkscape="http://www.inkscape.org/namespaces/inkscape" viewBox="0 0 24.000001 24.000001" version="1.1" x="0px" y="0px"><g transform="translate(0,-1028.3622)"><path style="color:#000000;font-style:normal;font-variant:normal;font-weight:normal;font-stretch:normal;font-size:medium;line-height:normal;font-family:sans-serif;font-variant-ligatures:normal;font-variant-position:normal;font-variant-caps:normal;font-variant-numeric:normal;font-variant-alternates:normal;font-feature-settings:normal;text-indent:0;text-align:start;text-decoration:none;text-decoration-line:none;text-decoration-style:solid;text-decoration-color:#000000;letter-spacing:normal;word-spacing:normal;text-transform:none;writing-mode:lr-tb;direction:ltr;text-orientation:mixed;dominant-baseline:auto;baseline-shift:baseline;text-anchor:start;white-space:normal;shape-padding:0;clip-rule:nonzero;display:inline;overflow:visible;visibility:visible;opacity:1;isolation:auto;mix-blend-mode:normal;color-interpolation:sRGB;color-interpolation-filters:linearRGB;solid-color:#000000;solid-opacity:1;vector-effect:none;fill:#000000;fill-opacity:1;fill-rule:nonzero;stroke:none;stroke-width:0.96083593;stroke-linecap:butt;stroke-linejoin:miter;stroke-miterlimit:4;stroke-dasharray:none;stroke-dashoffset:0;stroke-opacity:1;color-rendering:auto;image-rendering:auto;shape-rendering:auto;text-rendering:auto;enable-background:accumulate" d="M 12 3.0195312 L 12 3.0214844 C 8.6920288 3.0214844 6.0000304 5.7114313 6 9.0195312 C 6.00158 10.289731 6.8294566 11.520869 7.5839844 12.730469 C 8.2792798 13.84502 8.9049204 14.935555 9 15.730469 L 9 16.019531 L 9.0195312 16.019531 L 9.0195312 18.017578 C 9.0195312 19.660478 10.357102 20.998047 12 20.998047 C 13.642898 20.998047 14.980469 19.660478 14.980469 18.017578 L 14.980469 16.019531 L 15 16.019531 L 15 15.738281 C 15.095289 14.942053 15.722302 13.850216 16.417969 12.734375 C 17.1729 11.523375 18.000218 10.289378 18 9.0175781 C 17.99997 5.7094781 15.307971 3.0195312 12 3.0195312 z M 12 3.9785156 L 12 3.9804688 C 14.788711 3.9804688 17.039037 6.2307312 17.039062 9.0195312 C 17.039202 9.8259312 16.356486 11.013709 15.601562 12.224609 C 15.029895 13.141567 14.418248 14.070227 14.154297 15.019531 L 9.8476562 15.019531 C 9.5848119 14.068557 8.9714027 13.139233 8.3984375 12.220703 C 7.6438447 11.011003 6.9619384 9.8226781 6.9609375 9.0175781 C 6.9609631 6.2287781 9.2112886 3.9785156 12 3.9785156 z M 9.9804688 16.019531 L 14.019531 16.019531 L 14.019531 18.017578 C 14.019531 18.018242 14.019532 18.018867 14.019531 18.019531 L 9.9804688 18.019531 C 9.9804681 18.018867 9.9804688 18.018242 9.9804688 18.017578 L 9.9804688 16.019531 z M 10.25 19.019531 L 13.75 19.019531 C 13.404736 19.628581 12.759103 20.039062 12 20.039062 C 11.240897 20.039062 10.595264 19.628581 10.25 19.019531 z " transform="translate(0,1028.3622)"></path></g></svg>