<svg xmlns="http://www.w3.org/2000/svg" xmlns:xlink="http://www.w3.org/1999/xlink" width="100" height="100" viewBox="0 0 100 100"><g><g transform="translate(50 50) scale(0.69 0.69) rotate(0) translate(-50 -50)" style="fill:#000000"><svg fill="#000000" xmlns="http://www.w3.org/2000/svg" xmlns:xlink="http://www.w3.org/1999/xlink" version="1.1" x="0px" y="0px" viewBox="0 0 100 100" enable-background="new 0 0 100 100" xml:space="preserve"><path d="M50,3.75C24.498,3.75,3.75,24.498,3.75,50S24.498,96.25,50,96.25S96.25,75.502,96.25,50S75.502,3.75,50,3.75z   M54.081,72.164H45.24v-8.251h8.841V72.164z M59.824,49.787c-2.608,1.941-5.397,3.519-5.942,7.095v2.307h-8.188V56.46  c0.364-5.278,2.851-7.642,5.275-9.522c2.366-1.879,4.428-3.273,4.428-6.549c0-3.7-1.94-5.458-5.154-5.458  c-4.365,0-6.185,3.577-6.246,7.884h-8.915c0.183-8.672,5.884-14.979,14.736-14.979c11.462,0,15.102,7.035,15.102,11.702  C64.919,45.422,62.432,47.788,59.824,49.787z"></path></svg></g></g></svg>