<svg xmlns="http://www.w3.org/2000/svg" xmlns:xlink="http://www.w3.org/1999/xlink" version="1.1" x="0px" y="0px" viewBox="0 0 100 100" style="enable-background:new 0 0 100 100;" xml:space="preserve"><style type="text/css">
	.st0{fill-rule:evenodd;clip-rule:evenodd;fill:#1D1D1B;}
	.st1{fill:#1D1D1B;}
</style><g><path d="M50.3,13.3c20.4,0,37.1,16.6,37.1,37s-16.6,37-37.1,37s-37.1-16.6-37.1-37S29.8,13.3,50.3,13.3 M50.3,5.3   c-24.9,0-45.1,20.1-45.1,45c0,24.9,20.2,45,45.1,45c24.9,0,45.1-20.1,45.1-45C95.3,25.5,75.2,5.3,50.3,5.3L50.3,5.3z"></path><g><g><path d="M54.4,27.7V58c0,2.2-1.8,4-4,4s-4-1.8-4-4V27.7c0-2.2,1.8-4,4-4S54.4,25.5,54.4,27.7z"></path></g><ellipse cx="50.3" cy="72.9" rx="4.1" ry="4.1"></ellipse></g></g></svg>