<svg xmlns="http://www.w3.org/2000/svg" xmlns:xlink="http://www.w3.org/1999/xlink" version="1.1" x="0px" y="0px" viewBox="0 0 100 100" enable-background="new 0 0 100 100" xml:space="preserve"><path d="M90.609,13.61c-0.759-0.332-1.644,0.014-1.976,0.773L74.424,46.858c-1.158-1.156-2.818-1.764-4.476-1.548l7.765-32.48  c0.002-0.01,0.006-0.027,0.008-0.037c0.172-0.81-0.345-1.607-1.155-1.779c-0.81-0.172-1.607,0.345-1.779,1.155l-6.74,31.698  c-0.834-0.7-1.904-1.118-3.047-1.118c-2.317,0-4.251,1.667-4.667,3.865c-0.311-0.076-0.632-0.115-0.958-0.115  c-1.135,0-2.165,0.462-2.912,1.207c-0.473-1.763-2.075-3.07-3.986-3.07c-1.125,0-2.177,0.451-2.947,1.235  c-0.918-0.289-1.935-0.24-2.81,0.123c-0.734-1.435-2.232-2.403-3.914-2.403c-0.373,0-0.745,0.048-1.106,0.142  c-0.895-1.381-2.426-2.233-4.121-2.233c-2.275,0-4.215,1.564-4.762,3.697C30.666,45.482,29,47.329,29,49.557c0,0.02,0,0.04,0,0.06  c-0.732-0.208-1.543-0.221-2.3-0.023c-0.895-1.382-2.426-2.233-4.121-2.233c-2.275,0-4.215,1.563-4.762,3.697  C15.666,51.342,14,53.188,14,55.417c0,0.814,0.229,1.615,0.655,2.306c-0.088,0.359-0.132,0.725-0.132,1.092  c0,0.412,0.071,0.805,0.172,1.186H10c0,15.144,12.748,27.868,30,31.476V95h20v-3.524C77.252,87.868,90,75.144,90,60h-4.041  c-0.03-0.254-0.075-0.507-0.142-0.755c0.918-0.991,1.433-2.277,1.433-3.62c0-2.964-2.411-5.375-5.375-5.375  c-0.456,0-0.907,0.062-1.352,0.183c-0.762-1.563-2.358-2.625-4.133-2.667l14.977-32.149c0.004-0.008,0.011-0.024,0.015-0.032  C91.714,14.826,91.368,13.942,90.609,13.61z M78.941,51.94c0.063,0.305,0.266,0.562,0.546,0.696  c0.281,0.136,0.608,0.131,0.885-0.009c0.493-0.25,0.999-0.377,1.503-0.377c1.861,0,3.375,1.514,3.375,3.375  c0,0.98-0.447,1.917-1.227,2.571c-0.334,0.28-0.448,0.746-0.281,1.149c0.089,0.214,0.152,0.433,0.195,0.655H52.85H16.814  c-0.18-0.359-0.292-0.758-0.292-1.186c0-0.309,0.057-0.619,0.168-0.919c0.123-0.331,0.062-0.701-0.159-0.976  C16.184,56.489,16,55.969,16,55.417c0-1.322,1.076-2.398,2.397-2.398c0.065,0,0.129,0.005,0.193,0.01  c0.273,0.023,0.533-0.065,0.736-0.241s0.327-0.425,0.343-0.693c0.096-1.534,1.375-2.735,2.91-2.735c1.206,0,2.271,0.727,2.715,1.851  c0.104,0.264,0.316,0.472,0.583,0.571s0.563,0.078,0.814-0.054c1.048-0.551,2.401-0.207,3.077,0.781  C29.292,53.311,29,54.236,29,55.235c0,0.552,0.448,1,1,1s1-0.448,1-1c0-1.861,1.514-3.375,3.375-3.375c0.552,0,1-0.448,1-1  s-0.448-1-1-1c-1.121,0-2.161,0.346-3.023,0.935C31.124,50.422,31,50.001,31,49.557c0-1.322,1.076-2.397,2.397-2.397  c0.065,0,0.129,0.005,0.193,0.01c0.271,0.027,0.533-0.065,0.736-0.241c0.203-0.176,0.327-0.425,0.343-0.693  c0.096-1.534,1.375-2.735,2.91-2.735c1.206,0,2.271,0.726,2.715,1.85c0.104,0.265,0.316,0.472,0.583,0.571  c0.267,0.099,0.563,0.079,0.814-0.054c0.348-0.184,0.723-0.276,1.115-0.276c1.188,0,2.208,0.888,2.371,2.065  c0.051,0.369,0.303,0.679,0.654,0.804c0.352,0.124,0.742,0.045,1.016-0.208c0.672-0.622,1.703-0.742,2.496-0.294  c0.463,0.261,1.049,0.115,1.335-0.332c0.396-0.62,1.069-0.99,1.8-0.99c1.178,0,2.136,0.958,2.136,2.136c0,0.552,0.448,1,1,1  c1.178,0,2.136,0.958,2.136,2.137c0,0.854-0.507,1.624-1.292,1.962c-0.279,0.121-0.488,0.361-0.568,0.654  c-0.081,0.293-0.023,0.606,0.155,0.852c0.432,0.594,0.66,1.292,0.66,2.02c0,0.172,0.054,0.325,0.131,0.466  c0.169,0.313,0.489,0.534,0.869,0.534c0.552,0,1-0.448,1-1c0-0.791-0.17-1.559-0.497-2.267c0.96-0.773,1.542-1.95,1.542-3.222  c0-1.245-0.554-2.361-1.427-3.12c0.311-0.179,0.667-0.29,1.052-0.29c0.597,0,1.046,0.262,1.319,0.481  c0.327,0.263,0.784,0.294,1.143,0.078c0.36-0.216,0.546-0.634,0.467-1.046c-0.036-0.186-0.053-0.354-0.053-0.513  c0-1.517,1.233-2.75,2.75-2.75c1.099,0,2.076,0.669,2.509,1.648l-0.985,4.632c-0.112,0.529,0.217,1.054,0.746,1.181  c0.537,0.128,1.077-0.203,1.205-0.74l0.947-3.961c1.588-0.62,3.289,0.051,4.096,1.419l-1.93,4.41  c-0.216,0.496,0.001,1.078,0.494,1.307c0.501,0.233,1.096,0.016,1.329-0.484l1.982-4.254c0.303-0.103,0.585-0.157,0.857-0.157  C77.543,49.75,78.675,50.671,78.941,51.94z"></path></svg>