<svg xmlns="http://www.w3.org/2000/svg" data-name="Слой 1" viewBox="0 0 128 128" x="0px" y="0px"><title>potato</title><path d="M38.45,128h-.72c-9.67-.22-17.7-4.76-23.86-13.49C1.78,97.39-2.15,83.9,1.1,70.74c3.14-12.67,12.7-24.31,27.11-39C47.37,12.23,77.07-1.09,98.86.07c8.93.48,15.79,3.42,19.83,8.52h0c9.54,12,11.68,23.9,6.72,37.3C120.91,58,110.79,71,99.08,86.06L97.33,88.3C77.93,113.22,56,128,38.45,128ZM96.31,4C78.42,4,51.06,14.19,31.07,34.55,3.88,62.25-6.36,78.94,17.13,112.19c5.4,7.64,12.36,11.61,20.69,11.8,16.42.36,37.46-13.88,56.35-38.15l1.75-2.24C119.76,53,134.14,34.55,115.55,11.07c-3.31-4.17-9.15-6.6-16.91-7C97.89,4,97.11,4,96.31,4Z"></path><path d="M28.26,65.13a2,2,0,0,1-1.37-.54l-2-1.88a2,2,0,0,1,2.74-2.92l2,1.88a2,2,0,0,1-1.37,3.46Z"></path><path d="M77.26,86.85a2,2,0,0,1-1.31-.49L59.45,72a2,2,0,1,1,2.62-3l16.5,14.35a2,2,0,0,1-1.31,3.51Z"></path><path d="M66.26,48.92a2,2,0,0,1-1.47-.64l-5.5-5.92a2,2,0,1,1,2.93-2.72l5.5,5.92a2,2,0,0,1-1.46,3.36Z"></path><path d="M113.93,64.85a2,2,0,0,1-1.29-.47L106,58.78a2,2,0,0,1,2.57-3.06l6.67,5.6a2,2,0,0,1-1.29,3.53Z"></path><path d="M95.51,17a2,2,0,0,1-1.67-.89l-4-6a2,2,0,1,1,3.33-2.21l4,6A2,2,0,0,1,95.51,17Z"></path><path d="M35.26,117.25a2,2,0,0,1-1.63-.84l-1.25-1.75a2,2,0,0,1,3.25-2.33l1.25,1.75a2,2,0,0,1-1.63,3.16Z"></path></svg>