<?xml version="1.0" encoding="utf-8"?>
<!-- Generator: Adobe Illustrator 23.0.3, SVG Export Plug-In . SVG Version: 6.00 Build 0)  -->
<svg version="1.1" id="Layer_1" xmlns="http://www.w3.org/2000/svg" xmlns:xlink="http://www.w3.org/1999/xlink" x="0px" y="0px"
	 viewBox="0 0 113.39 113.39" style="enable-background:new 0 0 113.39 113.39;" xml:space="preserve">
<style type="text/css">
	.st0{fill:none;stroke:#000000;stroke-width:2;stroke-miterlimit:10;}
	.st1{fill:none;stroke:#000000;stroke-width:2;stroke-linecap:round;stroke-miterlimit:10;}
	.st2{fill:#FFFFFF;stroke:#000000;stroke-width:2;stroke-linecap:round;stroke-miterlimit:10;}
	.st3{fill:#FFFFFF;stroke:#000000;stroke-width:2;stroke-miterlimit:10;}
	.st4{fill:#FFFFFF;}
	.st5{fill:#FFFFFF;stroke:#050000;stroke-width:2;stroke-miterlimit:10;}
	.st6{fill:#FFFFFF;stroke:#000000;stroke-width:2;stroke-linecap:round;stroke-linejoin:bevel;stroke-miterlimit:10;}
</style>
<path class="st1" d="M91.99,53.66v47.46c0,0-1.71,4.68-5.93,4.68c-2.19,0-10.73,0-18.44,0c-8.32,0-37.84,0-40.3,0
	c-4.22,0-5.93-4.68-5.93-4.68V53.66"/>
<g>
	<polyline class="st0" points="47.45,48.76 43.22,43.2 40.07,47.4 44.57,53.44 	"/>
	<polyline class="st0" points="37.04,53.66 39.97,47.67 44.04,52.9 	"/>
</g>
<g>
	<path class="st0" d="M65.58,50.12l-1.62-5l14-0.5c0,0,2.18,3.01,2.37,4.81"/>
	<path class="st0" d="M67.54,53.66l-1.81-3.3l14.74-0.69c0,0,0.37,1.78,0.09,3.98"/>
</g>
<g>
	<polyline class="st0" points="58.82,38.25 63.26,35.44 66.2,45.41 	"/>
	<path class="st0" d="M49.18,48.87c-0.4-0.61-0.59-1.03-0.59-1.03l10.05-9.38l2.36,7.7"/>
</g>
<path class="st0" d="M27.82,25.97c1.9,1.77,3.9,4.2,3.42,6.56c-0.72,3.51-6.37,3.96-7.13,7.41c-0.33,1.52,0.23,3.86,4.28,7.41"/>
<path class="st0" d="M36.18,25.97c1.9,1.77,3.9,4.2,3.42,6.56c-0.72,3.51-6.37,3.96-7.13,7.41c-0.33,1.52,0.23,3.86,4.28,7.41"/>
<path class="st0" d="M87.5,25.97c1.9,1.77,3.9,4.2,3.42,6.56c-0.72,3.51-6.37,3.96-7.13,7.41c-0.33,1.52,0.23,3.86,4.28,7.41"/>
<polyline class="st1" points="97.84,53.66 53.98,53.66 59.4,53.66 15.54,53.66 "/>
<rect x="29.31" y="64.58" class="st1" width="21.28" height="31.93"/>
<g>
	<path class="st2" d="M65.32,49.33l10.26-13.77l-0.53-4.35c0,0,17.28-23.05,17.15-24.26c-0.14-1.21-1.4-2.23-1.4-2.23
		s-1.38-0.85-2.57-0.58c-1.19,0.28-17.15,24.26-17.15,24.26l-4.27,0.95L55.63,46.04l9.18-0.95l0.25,4.24"/>
	<line class="st1" x1="64.45" y1="46.66" x2="69.83" y2="39.06"/>
	<line class="st1" x1="61.91" y1="45.86" x2="67.76" y2="37.6"/>
	<line class="st1" x1="58.73" y1="45.79" x2="65.6" y2="36.07"/>
</g>
<g>
	<polyline class="st0" points="59.56,46.08 64.82,45.86 62.9,53.8 	"/>
	<path class="st0" d="M46.83,54.36c-1.16-2.69-0.92-5.09-0.92-5.09l13.39-3.1l-1.87,8.12"/>
</g>
</svg>
