<?xml version="1.0" encoding="utf-8"?>
<!-- Generator: Adobe Illustrator 23.0.3, SVG Export Plug-In . SVG Version: 6.00 Build 0)  -->
<svg version="1.1" id="Layer_1" xmlns="http://www.w3.org/2000/svg" xmlns:xlink="http://www.w3.org/1999/xlink" x="0px" y="0px"
	 viewBox="0 0 113.39 113.39" style="enable-background:new 0 0 113.39 113.39;" xml:space="preserve">
<style type="text/css">
	.st0{fill:none;stroke:#000000;stroke-width:2;stroke-miterlimit:10;}
	.st1{fill:none;stroke:#000000;stroke-width:2;stroke-linecap:round;stroke-miterlimit:10;}
	.st2{fill:#FFFFFF;stroke:#000000;stroke-width:2;stroke-linecap:round;stroke-miterlimit:10;}
	.st3{fill:#FFFFFF;stroke:#000000;stroke-width:2;stroke-miterlimit:10;}
	.st4{fill:#FFFFFF;}
	.st5{fill:#FFFFFF;stroke:#050000;stroke-width:2;stroke-miterlimit:10;}
	.st6{fill:#FFFFFF;stroke:#000000;stroke-width:2;stroke-linecap:round;stroke-linejoin:bevel;stroke-miterlimit:10;}
</style>
<g>
	<polyline class="st3" points="45.34,48.76 41.11,43.2 37.96,47.4 43.27,54.53 	"/>
	<polyline class="st3" points="34.93,53.66 37.86,47.67 42.95,54.21 	"/>
</g>
<g>
	<path class="st3" d="M63.47,35.12l-1.62-5l14-0.5c0,0,2.18,3.01,2.36,4.81"/>
	<path class="st3" d="M70.22,47.41l-6.6-12.05l14.74-0.69c0,0,1.01,4.87-1.57,8.47C74.21,46.72,70.22,47.41,70.22,47.41z"/>
</g>
<g>
	<path class="st3" d="M56.71,8.25l4.44-2.81l3.95,13.44c0,0-2.38,2.86-4.08,3.48"/>
	<path class="st3" d="M46.48,17.84l10.05-9.38l4.32,14.11c0,0-4.47,2.19-8.59,0.57S46.48,17.84,46.48,17.84z"/>
</g>
<g>
	<polyline class="st3" points="57.45,45.92 62.7,45.71 60.79,53.65 56.69,54.21 	"/>
	<path class="st3" d="M44.71,54.21c-1.16-2.69-0.92-5.09-0.92-5.09l13.39-3.1l-1.87,8.12"/>
</g>
<path class="st0" d="M25.71,25.97c1.9,1.77,3.9,4.2,3.42,6.56c-0.72,3.51-6.37,3.96-7.13,7.41c-0.33,1.52,0.23,3.86,4.28,7.41"/>
<path class="st0" d="M34.07,25.97c1.9,1.77,3.9,4.2,3.42,6.56c-0.72,3.51-6.37,3.96-7.13,7.41c-0.33,1.52,0.23,3.86,4.28,7.41"/>
<path class="st0" d="M85.39,25.97c1.9,1.77,3.9,4.2,3.42,6.56c-0.72,3.51-6.37,3.96-7.13,7.41c-0.33,1.52,0.23,3.86,4.28,7.41"/>
<path class="st1" d="M89.88,53.66v47.46c0,0-1.71,4.68-5.93,4.68c-2.19,0-10.73,0-18.44,0c-8.32,0-37.84,0-40.3,0
	c-4.22,0-5.93-4.68-5.93-4.68V53.66"/>
<polyline class="st1" points="95.73,53.66 51.87,53.66 57.29,53.66 13.43,53.66 "/>
<rect x="27.2" y="64.58" class="st1" width="21.28" height="31.93"/>
</svg>
