<?xml version="1.0" encoding="utf-8"?>
<!-- Generator: Adobe Illustrator 23.0.3, SVG Export Plug-In . SVG Version: 6.00 Build 0)  -->
<svg version="1.1" id="Layer_1" xmlns="http://www.w3.org/2000/svg" xmlns:xlink="http://www.w3.org/1999/xlink" x="0px" y="0px"
	 viewBox="0 0 113.39 113.39" style="enable-background:new 0 0 113.39 113.39;" xml:space="preserve">
<style type="text/css">
	.st0{fill:none;stroke:#000000;stroke-width:2;stroke-miterlimit:10;}
	.st1{fill:none;stroke:#000000;stroke-width:2;stroke-linecap:round;stroke-miterlimit:10;}
	.st2{fill:#FFFFFF;stroke:#000000;stroke-width:2;stroke-linecap:round;stroke-miterlimit:10;}
	.st3{fill:#FFFFFF;stroke:#000000;stroke-width:2;stroke-miterlimit:10;}
	.st4{fill:#FFFFFF;}
	.st5{fill:#FFFFFF;stroke:#050000;stroke-width:2;stroke-miterlimit:10;}
	.st6{fill:#FFFFFF;stroke:#000000;stroke-width:2;stroke-linecap:round;stroke-linejoin:bevel;stroke-miterlimit:10;}
</style>
<g>
	<path d="M21.76,45.08c0.61,0.15,0.93,0.53,0.94,0.99c0.01,0.52-0.29,0.99-0.78,1.09c-1.94,0.42-3.89,0.82-5.84,1.21
		c-0.5,0.1-1.01-0.31-1.12-0.84c-0.12-0.56,0.21-1.12,0.76-1.26c0.55-0.14,1.12-0.24,1.68-0.35c1.27-0.26,2.54-0.52,3.81-0.78
		C21.44,45.09,21.66,45.09,21.76,45.08z"/>
	<path class="st0" d="M20.93,30.63c0,0,16.23-2.31,21.11,14.36s16.74,25.15,16.74,25.15s7.4,10.08,6.94,19.27
		c-0.46,9.19-5.73,12.09-9.59,14.28s-13.73,2.95-22.19-2.24S16.49,90.53,9.62,77.31s-5.69-19.44-4.35-29.5s6.37-12.73,6.37-12.73
		S15.43,31.4,20.93,30.63z"/>
	<path class="st1" d="M5.62,67.77c0,0,2.05,1.01,5.45-0.95s3.1-2.61,3.1-2.61"/>
	<line class="st1" x1="15.76" y1="47.3" x2="21.82" y2="46.01"/>
	<path class="st1" d="M20.57,91.84c0,0,2.6-0.74,4.18-1.46c1.57-0.72,2.31-1.69,2.31-1.69"/>
	<path class="st1" d="M42.22,84.43c0,0,2.25-1.33,2.45-1.93"/>
	<path class="st1" d="M50.03,75.11c0,0,3.03-1.78,3.79-2.86s2.44-4.23,2.44-4.23"/>
	<path class="st1" d="M61.05,82.77c0,0,1.63,4.58,1.06,7.31c-0.56,2.72-2.59,5.14-2.59,5.14"/>
	<path class="st1" d="M41.11,104.32c0,0,3.05-1.85,4.06-3.47"/>
</g>
<path class="st3" d="M34.79,37.57c-3.18,0-4.95,6-4.95,6s-1.11,8.99,1.77,12.14s4.45,5.1,5.01,7.05c0.56,1.95,3.26,7.42,3.86,7.98
	c0.6,0.56,2.31,2.26,5.5,0.96c3.2-1.3-0.12-6.85-2.21-10.44c-2.09-3.6-5.84-8.12-6.44-10.96c-0.6-2.84-0.68-5.38-0.71-7.33
	C36.59,41.01,36.22,37.57,34.79,37.57z"/>
<path class="st3" d="M104.86,104.48c1.72-2.67-2.39-7.4-2.39-7.4s-6.98-5.78-11.18-5.05c-4.2,0.73-6.69,1-8.64,0.42
	c-1.95-0.57-8.01-1.25-8.8-1.05c-0.8,0.2-3.15,0.72-3.78,4.11c-0.63,3.39,5.83,3.58,9.99,3.76c4.16,0.18,9.99-0.54,12.7,0.48
	c2.71,1.02,4.9,2.33,6.56,3.35C100.98,104.14,104.09,105.68,104.86,104.48z"/>
<path class="st3" d="M99.79,96.42c0.29-3.16-5.53-5.47-5.53-5.47s-8.86-1.91-12.25,0.67c-3.4,2.58-5.48,3.97-7.47,4.35
	c-1.99,0.39-7.68,2.58-8.3,3.13c-0.62,0.55-2.46,2.09-1.46,5.39c1.01,3.3,6.83,0.49,10.6-1.26c3.77-1.75,8.61-5.08,11.49-5.42
	s5.42-0.19,7.37-0.05C96.19,97.9,99.66,97.84,99.79,96.42z"/>
<path class="st3" d="M108.48,96.42c0.29-3.16-5.53-5.47-5.53-5.47s-8.86-1.91-12.25,0.67c-3.4,2.58-5.48,3.97-7.47,4.35
	c-1.99,0.39-7.68,2.58-8.3,3.13c-0.62,0.55-2.46,2.09-1.46,5.39c1.01,3.3,6.83,0.49,10.6-1.26c3.77-1.75,8.61-5.08,11.49-5.42
	s5.42-0.19,7.37-0.05C104.89,97.9,108.35,97.84,108.48,96.42z"/>
<g>
	<path class="st4" d="M55.3,41.28c-4.45,2.77-8.9,5.53-13.35,8.3c-4.88,3.03-9.76,6.06-14.63,9.1c-2.04,1.27-3.56,2.99-4.27,5.33
		c-1.08,3.57,0.82,6.66,4.48,7.3c2.55,0.45,4.9-0.2,7.06-1.54c9.27-5.75,18.53-11.51,27.79-17.27c0.14-0.09,0.27-0.17,0.42-0.26
		c-2.35-3.78-4.66-7.5-7-11.27C55.61,41.09,55.45,41.18,55.3,41.28z M58.35,50.57L31.31,67.2l-2.74-4.69l26.62-16.65L58.35,50.57z"
		/>
	<g>
		<path d="M55.65,44.46c1.31,2.1,2.6,4.18,3.91,6.28c-9.53,5.92-19.04,11.83-28.57,17.76c-1.3-2.09-2.59-4.17-3.91-6.28
			C36.59,56.31,46.1,50.4,55.65,44.46z M31.65,65.64c8.33-5.18,16.63-10.34,24.93-15.49c-0.56-0.9-1.11-1.78-1.65-2.66
			C46.6,52.67,38.3,57.82,30,62.98C30.56,63.88,31.09,64.74,31.65,65.64z"/>
		<path d="M65.59,52.71c-0.92-1.48-1.82-2.92-2.71-4.36c1.22-0.76,2.4-1.49,3.61-2.25l-1.13-1.82c-1.2,0.74-2.38,1.48-3.59,2.23
			c-0.44-0.71-0.88-1.42-1.35-2.17c1.21-0.75,2.39-1.48,3.59-2.23l-1.13-1.82c-1.24,0.77-2.42,1.51-3.62,2.25
			c-0.94-1.51-1.86-3-2.82-4.54c-0.2,0.12-0.35,0.22-0.51,0.31c-10.07,6.26-20.14,12.5-30.19,18.78c-2.34,1.46-3.95,3.55-4.75,6.21
			c-1.43,4.73,1.19,9.06,6.05,9.97c2.8,0.53,5.45,0,7.85-1.48C44.98,65.55,55.05,59.27,65.12,53C65.26,52.92,65.4,52.83,65.59,52.71
			z M62.38,52.5c-9.26,5.76-18.53,11.52-27.79,17.27c-2.17,1.34-4.51,1.99-7.06,1.54c-3.67-0.64-5.56-3.73-4.48-7.3
			c0.71-2.34,2.23-4.06,4.27-5.33c4.87-3.04,9.75-6.07,14.63-9.1c4.45-2.77,8.9-5.53,13.35-8.3c0.15-0.1,0.31-0.19,0.51-0.31
			c2.34,3.77,4.66,7.49,7,11.27C62.65,52.33,62.51,52.41,62.38,52.5z"/>
		<path d="M60.06,36.27c-0.01,0.01-0.02,0.01-0.03,0.02l8.29,13.34c0.02-0.01,0.03-0.02,0.05-0.03c0.47,0.83,0.92,1.59,1.89,1.8
			c0.93,0.2,1.79,0.01,2.57-0.5c1.49-0.96,1.83-2.41,0.93-4.12c0.19-0.12,0.36-0.22,0.52-0.32c9.96-6.19,19.92-12.38,29.88-18.58
			c0.51-0.32,1.01-0.69,1.44-1.11c1.95-1.86,2.85-5.13,0.99-7.86c-0.76-1.12-1.44-2.3-2.16-3.45c-0.82-1.32-2.02-2.14-3.52-2.5
			c-1.93-0.45-3.7-0.05-5.37,0.99c-9.97,6.21-19.95,12.4-29.92,18.6c-0.17,0.1-0.33,0.21-0.49,0.3c-1.19-1.21-2.6-1.39-3.98-0.51
			c-0.65,0.41-1.13,0.97-1.39,1.7C59.5,34.82,59.59,35.55,60.06,36.27z"/>
	</g>
</g>
</svg>
