<?xml version="1.0" encoding="utf-8"?>
<!-- Generator: Adobe Illustrator 23.0.3, SVG Export Plug-In . SVG Version: 6.00 Build 0)  -->
<svg version="1.1" id="Layer_1" xmlns="http://www.w3.org/2000/svg" xmlns:xlink="http://www.w3.org/1999/xlink" x="0px" y="0px"
	 viewBox="0 0 113.39 113.39" style="enable-background:new 0 0 113.39 113.39;" xml:space="preserve">
<style type="text/css">
	.st0{fill:none;stroke:#000000;stroke-width:2;stroke-miterlimit:10;}
	.st1{fill:#FFFFFF;}
	.st2{fill:none;stroke:#000000;stroke-width:2;stroke-linecap:round;stroke-miterlimit:10;}
	.st3{fill:#FFFFFF;stroke:#000000;stroke-width:2;stroke-miterlimit:10;}
	.st4{fill:#FFFFFF;stroke:#050000;stroke-width:2;stroke-miterlimit:10;}
</style>
<g>
	<path class="st3" d="M29.77,72.39l9.95-5.4l6.58,29.44c0,0-5.51,5.8-9.26,6.9"/>
	<path class="st3" d="M6.41,91.53l22.93-18.71l7.27,30.95c0,0-9.92,4.06-18.55,0S6.41,91.53,6.41,91.53z"/>
</g>
<g>
	<path class="st3" d="M49.64,73.83l9.95-5.4l6.58,29.44c0,0-5.51,5.8-9.26,6.9"/>
	<path class="st3" d="M26.28,92.97l22.93-18.71l7.27,30.95c0,0-9.92,4.06-18.55,0S26.28,92.97,26.28,92.97z"/>
</g>
<g>
	<path class="st3" d="M69.59,72.65l9.95-5.4l6.58,29.44c0,0-5.51,5.8-9.26,6.9"/>
	<path class="st3" d="M46.23,91.8l22.93-18.71l7.27,30.95c0,0-9.92,4.06-18.55,0S46.23,91.8,46.23,91.8z"/>
</g>
<g>
	<path class="st4" d="M13.81,61.71c1.35,1.65,2.93,2.94,4.86,3.77c2.56,1.11,5.23,1.27,7.95,0.86c4.12-0.63,7.85-2.25,11.31-4.5
		c8.71-5.67,17.4-11.37,26.1-17.05c0.14-0.09,0.27-0.18,0.42-0.27c-2.45-3.74-4.85-7.43-7.28-11.14
		C42.72,42.81,28.29,52.25,13.81,61.71z"/>
	<path d="M102.4,13.9c-0.81-1.13-1.53-2.32-2.29-3.49c-0.87-1.34-2.12-2.15-3.66-2.48c-1.99-0.42-3.79,0.04-5.48,1.14
		c-10.08,6.6-20.17,13.18-30.25,19.78c-0.17,0.11-0.34,0.22-0.5,0.32c-1.25-1.22-2.7-1.37-4.09-0.43c-0.65,0.44-1.13,1.02-1.38,1.78
		c-0.26,0.79-0.15,1.53,0.34,2.26l8.84,13.48c0.5,0.84,0.98,1.61,1.98,1.81c0.96,0.19,1.83-0.03,2.63-0.57
		c1.51-1.02,1.82-2.51,0.85-4.24c0.19-0.13,0.36-0.24,0.53-0.35c10.07-6.58,20.14-13.16,30.21-19.75c0.52-0.34,1.02-0.73,1.45-1.17
		C103.53,20.03,104.37,16.66,102.4,13.9z"/>
</g>
<g>
	<path class="st3" d="M91.92,72.65l9.95-5.4l6.58,29.44c0,0-5.51,5.8-9.26,6.9"/>
	<path class="st3" d="M68.56,91.8l22.93-18.71l7.27,30.95c0,0-9.92,4.06-18.55,0S68.56,91.8,68.56,91.8z"/>
</g>
</svg>
