<?xml version="1.0" encoding="utf-8"?>
<!-- Generator: Adobe Illustrator 23.0.3, SVG Export Plug-In . SVG Version: 6.00 Build 0)  -->
<svg version="1.1" id="Layer_1" xmlns="http://www.w3.org/2000/svg" xmlns:xlink="http://www.w3.org/1999/xlink" x="0px" y="0px"
	 viewBox="0 0 113.39 113.39" style="enable-background:new 0 0 113.39 113.39;" xml:space="preserve">
<style type="text/css">
	.st0{fill:none;stroke:#000000;stroke-width:2;stroke-miterlimit:10;}
	.st1{fill:none;stroke:#000000;stroke-width:2;stroke-linecap:round;stroke-miterlimit:10;}
	.st2{fill:#FFFFFF;stroke:#000000;stroke-width:2;stroke-linecap:round;stroke-miterlimit:10;}
	.st3{fill:#FFFFFF;stroke:#000000;stroke-width:2;stroke-miterlimit:10;}
	.st4{fill:#FFFFFF;}
	.st5{fill:#FFFFFF;stroke:#050000;stroke-width:2;stroke-miterlimit:10;}
	.st6{fill:#FFFFFF;stroke:#000000;stroke-width:2;stroke-linecap:round;stroke-linejoin:bevel;stroke-miterlimit:10;}
</style>
<g>
	<rect x="14.07" y="51.77" class="st0" width="63.68" height="39.16"/>
	<path d="M95.16,99.81c0,1.73,0,3.39,0,5.07c-2.48,0-4.91,0-7.41,0c0-1.68,0-3.35,0-5.07c-0.21,0-0.37,0-0.53,0
		c-20.7,0-41.39,0-62.09-0.01c-0.44,0-0.53,0.13-0.53,0.55c0.02,1.5,0.01,3,0.01,4.52c-2.47,0-4.9,0-7.4,0c0-1.66,0-3.33,0-5.06
		c-0.21,0-0.37,0-0.52,0c-1.69,0-3.38,0-5.07,0c-3.22-0.01-5.48-2.29-5.48-5.52c0-15.25,0-30.51,0-45.76c0-1.83,0.72-3.28,2.13-4.44
		c2.69-2.22,5.35-4.47,8.03-6.7c0.19-0.16,0.49-0.26,0.74-0.26c25.93-0.01,51.87-0.01,77.8,0c0.26,0,0.55,0.09,0.77,0.23
		c3.22,2.14,6.42,4.3,9.64,6.44c1.73,1.15,2.57,2.74,2.57,4.83c-0.01,15.25,0,30.51-0.01,45.76c0,2.71-1.75,4.84-4.4,5.34
		c-0.37,0.07-0.76,0.08-1.14,0.08c-2.18,0.01-4.35,0-6.53,0C95.58,99.81,95.4,99.81,95.16,99.81z M83.34,45.16c-0.18,0-0.34,0-0.5,0
		c-23.74,0-47.48,0-71.22,0c-2,0-3.36,1.35-3.36,3.35c0,15.28,0,30.56,0,45.85c0,0.22,0,0.44,0.04,0.66
		c0.29,1.66,1.57,2.68,3.36,2.68c23.72,0,47.45,0,71.17,0c0.16,0,0.32,0,0.5,0C83.34,80.17,83.34,62.69,83.34,45.16z M85.5,97.7
		c0.17,0,0.3,0,0.44,0c5.49,0,10.97,0,16.46,0c1.97,0,3.31-1.36,3.31-3.34c0-15.28,0-30.56,0-45.84c0-1.99-1.36-3.35-3.35-3.35
		c-5.46,0-10.91,0-16.37,0c-0.16,0-0.31,0-0.48,0C85.5,62.7,85.5,80.16,85.5,97.7z M12.89,43.01c29.16,0,58.21,0,87.35,0
		c-0.18-0.13-0.3-0.22-0.42-0.3c-1.58-1.06-3.16-2.1-4.72-3.17c-0.32-0.22-0.63-0.31-1.02-0.31c-24.96,0.01-49.92,0.02-74.88-0.02
		c-1.29,0-2.29,0.27-3.22,1.18C15.04,41.31,13.97,42.11,12.89,43.01z M22.48,99.82c-1,0-1.95-0.01-2.9,0.01
		c-0.09,0-0.24,0.14-0.24,0.22c-0.02,0.91-0.01,1.81-0.01,2.72c1.08,0,2.11,0,3.15,0C22.48,101.79,22.48,100.84,22.48,99.82z
		 M92.99,102.77c0.03-0.07,0.05-0.1,0.05-0.12c0-0.57,0.01-1.15,0.01-1.72c0-1.12,0-1.12-1.13-1.12c-0.67,0-1.34,0-2.01,0
		c0,1.03,0,1.99,0,2.96C90.96,102.77,91.97,102.77,92.99,102.77z"/>
	<path d="M87.4,58.2c0-2.89,0-5.73,0-8.61c5.6,0,11.18,0,16.78,0c0,2.86,0,5.72,0,8.61C98.6,58.2,93.02,58.2,87.4,58.2z
		 M102.08,51.71c-4.21,0-8.38,0-12.54,0c0,1.48,0,2.92,0,4.37c4.2,0,8.37,0,12.54,0C102.08,54.61,102.08,53.18,102.08,51.71z"/>
	<path d="M95.82,69.54c-2.16,0.01-3.9-1.72-3.9-3.88c0-2.16,1.73-3.9,3.89-3.91c2.12,0,3.88,1.75,3.89,3.87
		C99.71,67.78,97.97,69.53,95.82,69.54z M95.8,67.42c0.98,0,1.77-0.78,1.78-1.76c0.01-0.96-0.79-1.77-1.75-1.79
		c-0.99-0.01-1.79,0.79-1.79,1.79C94.04,66.65,94.81,67.42,95.8,67.42z"/>
	<path d="M91.92,75.91c0-2.15,1.75-3.9,3.9-3.89c2.14,0.01,3.89,1.78,3.88,3.92c-0.01,2.12-1.77,3.87-3.89,3.87
		C93.65,79.81,91.91,78.06,91.92,75.91z M94.03,75.91c0,0.98,0.78,1.77,1.75,1.78c0.98,0.01,1.8-0.82,1.79-1.8
		c-0.01-0.96-0.83-1.76-1.79-1.76C94.81,74.14,94.03,74.93,94.03,75.91z"/>
	<path d="M95.78,89.82c-2.16-0.01-3.88-1.75-3.87-3.91c0.01-2.16,1.75-3.87,3.92-3.86c2.12,0.01,3.86,1.76,3.86,3.89
		C99.69,88.08,97.94,89.83,95.78,89.82z M95.82,87.7c0.97-0.01,1.76-0.81,1.75-1.78c-0.01-0.97-0.81-1.76-1.78-1.76
		c-1,0-1.78,0.8-1.76,1.8C94.05,86.94,94.83,87.71,95.82,87.7z"/>
	<path d="M95.8,95.58c-2.29,0-4.58,0-6.88,0c-0.66,0-1.09-0.35-1.16-0.91c-0.07-0.59,0.28-1.08,0.87-1.18
		c0.17-0.03,0.35-0.03,0.53-0.03c4.42,0,8.84,0,13.27,0c0.13,0,0.27-0.01,0.4,0.01c0.6,0.06,1.02,0.5,1.02,1.07
		c0,0.59-0.44,1.03-1.08,1.04c-0.94,0.02-1.88,0.01-2.82,0.01C98.56,95.58,97.18,95.58,95.8,95.58z"/>
</g>
<g>
	<path d="M33.3,71.81c0.22-0.17,0.44-0.18,0.6-0.06c0.18,0.14,0.26,0.37,0.17,0.56c-0.38,0.79-0.77,1.57-1.16,2.35
		c-0.1,0.2-0.38,0.26-0.59,0.16c-0.23-0.11-0.33-0.38-0.23-0.61c0.1-0.23,0.22-0.45,0.33-0.68c0.25-0.51,0.5-1.02,0.76-1.53
		C33.21,71.92,33.27,71.84,33.3,71.81z"/>
	<path class="st2" d="M28.07,68.18c0,0,3.59-6.25,10.69-3.43C45.85,67.57,52,65.76,52,65.76s5.5,0.16,8.55,2.81
		c3.06,2.65,2.64,5.26,2.35,7.19c-0.29,1.93-2.69,5.56-6.78,7.08s-8.51,3.09-14.95,1.89c-6.44-1.2-8.27-3.29-11.4-6.47
		s-2.69-5.65-2.69-5.65S26.84,70.29,28.07,68.18z"/>
	<path class="st1" d="M36.79,83.54c0,0,0.91-0.44,1.14-2.15c0.24-1.71-0.07-1.78-0.07-1.78"/>
	<line class="st1" x1="32.44" y1="74.48" x2="33.64" y2="72.04"/>
	<path class="st1" d="M49.18,84.87c0,0,0.45-1.1,0.62-1.84c0.18-0.74,0.04-1.26,0.04-1.26"/>
	<path class="st1" d="M52.47,75.37c0,0,0.15-1.14,0-1.37"/>
	<path class="st1" d="M51.35,70.14c0,0,0.2-1.53,0.04-2.09c-0.17-0.56-0.8-1.99-0.8-1.99"/>
	<path class="st1" d="M56.99,68.39c0,0,2.03,0.68,2.82,1.61c0.79,0.93,1.08,2.29,1.08,2.29"/>
	<path class="st1" d="M59.06,81.13c0,0,0.19-1.56-0.1-2.35"/>
</g>
<line class="st0" x1="27.1" y1="73.61" x2="14.07" y2="73.61"/>
<line class="st0" x1="63.11" y1="73.61" x2="76.85" y2="73.61"/>
</svg>
