<?xml version="1.0" encoding="utf-8"?>
<!-- Generator: Adobe Illustrator 23.0.3, SVG Export Plug-In . SVG Version: 6.00 Build 0)  -->
<svg version="1.1" id="Layer_1" xmlns="http://www.w3.org/2000/svg" xmlns:xlink="http://www.w3.org/1999/xlink" x="0px" y="0px"
	 viewBox="0 0 113.39 113.39" style="enable-background:new 0 0 113.39 113.39;" xml:space="preserve">
<style type="text/css">
	.st0{fill:none;stroke:#000000;stroke-width:2;stroke-miterlimit:10;}
	.st1{fill:none;stroke:#000000;stroke-width:2;stroke-linecap:round;stroke-miterlimit:10;}
	.st2{fill:#FFFFFF;stroke:#000000;stroke-width:2;stroke-linecap:round;stroke-miterlimit:10;}
	.st3{fill:#FFFFFF;stroke:#000000;stroke-width:2;stroke-miterlimit:10;}
	.st4{fill:#FFFFFF;}
	.st5{fill:#FFFFFF;stroke:#050000;stroke-width:2;stroke-miterlimit:10;}
	.st6{fill:#FFFFFF;stroke:#000000;stroke-width:2;stroke-linecap:round;stroke-linejoin:bevel;stroke-miterlimit:10;}
</style>
<path class="st0" d="M57.07,34.41c1.9,1.77,3.9,4.2,3.42,6.56c-0.72,3.51-6.37,3.96-7.13,7.41c-0.33,1.52,0.23,3.86,4.28,7.41"/>
<path class="st0" d="M48.99,34.41c1.9,1.77,3.9,4.2,3.42,6.56c-0.72,3.51-6.37,3.96-7.13,7.41c-0.33,1.52,0.23,3.86,4.28,7.41"/>
<path class="st0" d="M65.43,34.41c1.9,1.77,3.9,4.2,3.42,6.56c-0.72,3.51-6.37,3.96-7.13,7.41c-0.33,1.52,0.23,3.86,4.28,7.41"/>
<path class="st2" d="M95.32,94.12H17.21c-1.96,0-3.56-1.6-3.56-3.56v0c0-1.96,1.6-3.56,3.56-3.56h78.11c1.96,0,3.56,1.6,3.56,3.56v0
	C98.89,92.52,97.28,94.12,95.32,94.12z"/>
<polygon class="st6" points="95.94,94.12 87.91,105.24 56.96,105.24 55.57,105.24 24.62,105.24 16.59,94.12 "/>
<g>
	<polyline class="st0" points="38.27,79.22 32,70.97 27.33,77.21 34,86.16 	"/>
	<polyline class="st0" points="22.83,86.48 27.18,77.6 33.22,85.35 	"/>
</g>
<g>
	<path class="st0" d="M65.12,81.24l-2.4-7.41l20.74-0.75c0,0,3.23,4.46,3.5,7.13"/>
	<path class="st0" d="M68.04,86.48l-2.68-4.9l21.84-1.03c0,0,0.55,2.64,0.14,5.9"/>
</g>
<g>
	<polyline class="st0" points="55.11,63.65 61.7,59.49 66.04,74.25 	"/>
	<path class="st0" d="M40.82,79.38c-0.6-0.91-0.87-1.52-0.87-1.52l14.88-13.89l3.49,11.41"/>
</g>
<g>
	<polyline class="st0" points="56.21,75.24 63.99,74.92 61.15,86.68 	"/>
	<path class="st0" d="M37.34,87.52c-1.72-3.99-1.36-7.55-1.36-7.55l19.83-4.6l-2.77,12.04"/>
</g>
</svg>
