<?xml version="1.0" encoding="utf-8"?>
<!-- Generator: Adobe Illustrator 23.0.4, SVG Export Plug-In . SVG Version: 6.00 Build 0)  -->
<svg version="1.1" id="Layer_1" xmlns="http://www.w3.org/2000/svg" xmlns:xlink="http://www.w3.org/1999/xlink" x="0px" y="0px"
	 viewBox="0 0 113.39 113.39" style="enable-background:new 0 0 113.39 113.39;" xml:space="preserve">
<style type="text/css">
	.st0{fill:none;stroke:#000000;stroke-width:2;stroke-miterlimit:10;}
	.st1{fill:none;stroke:#000000;stroke-width:2;stroke-linecap:round;stroke-miterlimit:10;}
	.st2{fill:#FFFFFF;stroke:#000000;stroke-width:2;stroke-linecap:round;stroke-miterlimit:10;}
	.st3{fill:#FFFFFF;stroke:#000000;stroke-width:2;stroke-miterlimit:10;}
	.st4{fill:#FFFFFF;}
	.st5{fill:#FFFFFF;stroke:#050000;stroke-width:2;stroke-miterlimit:10;}
	.st6{fill:#FFFFFF;stroke:#000000;stroke-width:2;stroke-linecap:round;stroke-linejoin:bevel;stroke-miterlimit:10;}
	.st7{fill:none;stroke:#000000;stroke-linecap:round;stroke-miterlimit:10;}
	.st8{fill:none;stroke:#000000;stroke-linecap:round;stroke-miterlimit:10;stroke-dasharray:1.9526,3.9052;}
	.st9{fill:none;stroke:#050000;stroke-width:2;stroke-linejoin:round;stroke-miterlimit:10;}
	.st10{fill:#FFFFFF;stroke:#050000;stroke-width:2;stroke-linecap:round;stroke-miterlimit:10;}
	.st11{fill:none;stroke:#050000;stroke-width:2;stroke-miterlimit:10;}
	.st12{fill:#FFFFFF;stroke:#050000;stroke-width:2;stroke-linejoin:round;stroke-miterlimit:10;}
</style>
<ellipse transform="matrix(0.5248 -0.8512 0.8512 0.5248 -26.7613 60.0231)" class="st5" cx="40.38" cy="53.98" rx="5.63" ry="1.88"/>
<ellipse transform="matrix(0.9993 -0.0381 0.0381 0.9993 -1.5748 1.9113)" class="st5" cx="49.36" cy="42.28" rx="1.9" ry="5.55"/>
<ellipse transform="matrix(0.9993 -0.0381 0.0381 0.9993 -1.0477 1.6112)" class="st5" cx="41.75" cy="28.3" rx="1.9" ry="5.55"/>
<ellipse transform="matrix(0.9993 -0.0381 0.0381 0.9993 -1.0302 0.7658)" class="st5" cx="19.58" cy="27.41" rx="1.9" ry="5.55"/>
<ellipse transform="matrix(0.1097 -0.994 0.994 0.1097 -31.7715 76.3054)" class="st5" cx="26.71" cy="55.89" rx="1.81" ry="5.85"/>
<ellipse transform="matrix(0.4953 -0.8687 0.8687 0.4953 -26.2454 46.2851)" class="st5" cx="26.71" cy="45.73" rx="5.62" ry="1.88"/>
<ellipse transform="matrix(0.4953 -0.8687 0.8687 0.4953 -14.054 57.7537)" class="st5" cx="42.68" cy="40.97" rx="5.62" ry="1.88"/>
<ellipse transform="matrix(0.2763 -0.9611 0.9611 0.2763 -21.9163 65.1929)" class="st5" cx="32.33" cy="47.15" rx="1.81" ry="5.83"/>
<ellipse transform="matrix(0.7874 -0.6164 0.6164 0.7874 -15.6258 33.3112)" class="st5" cx="40.48" cy="39.31" rx="1.87" ry="5.66"/>
<ellipse transform="matrix(0.7874 -0.6164 0.6164 0.7874 -27.9003 18.959)" class="st5" cx="13.54" cy="49.93" rx="1.87" ry="5.66"/>
<ellipse transform="matrix(0.8512 -0.5248 0.5248 0.8512 -15.8261 11.5479)" class="st5" cx="12.46" cy="33.69" rx="1.88" ry="5.63"/>
<ellipse transform="matrix(0.9795 -0.2017 0.2017 0.9795 -6.2417 6.6053)" class="st5" cx="29.3" cy="33.94" rx="5.84" ry="1.81"/>
<ellipse transform="matrix(0.8004 -0.5995 0.5995 0.8004 -21.3789 20.3446)" class="st5" cx="19.86" cy="42.28" rx="5.74" ry="1.84"/>
<ellipse transform="matrix(0.8004 -0.5995 0.5995 0.8004 -11.4633 17.0431)" class="st5" cx="19.86" cy="25.74" rx="5.74" ry="1.84"/>
<ellipse transform="matrix(0.5777 -0.8162 0.8162 0.5777 -7.0078 36.453)" class="st5" cx="31.73" cy="25" rx="1.84" ry="5.74"/>
<path class="st11" d="M85.57,38.26L85.57,38.26l-5.01-9.18l-5.01,9.17c0,0,0,0,0,0l0,0h0c-0.14,0.24-0.27,0.49-0.38,0.75
	c-0.29,0.69-0.45,1.46-0.45,2.26c0,3.23,2.62,5.85,5.85,5.85s5.85-2.62,5.85-5.85C86.41,40.17,86.1,39.14,85.57,38.26z"/>
<path class="st11" d="M91.2,28.71L91.2,28.71l-2.79-5.11l-2.79,5.1c0,0,0,0,0,0l0,0h0c-0.08,0.13-0.15,0.27-0.21,0.42
	c-0.16,0.39-0.25,0.81-0.25,1.26c0,1.8,1.46,3.26,3.26,3.26s3.26-1.46,3.26-3.26C91.67,29.77,91.5,29.2,91.2,28.71z"/>
<path class="st11" d="M83.97,21.81L83.97,21.81l-2.36-4.32l-2.36,4.31c0,0,0,0,0,0l0,0h0c-0.07,0.11-0.13,0.23-0.18,0.35
	c-0.14,0.33-0.21,0.69-0.21,1.06c0,1.52,1.23,2.75,2.75,2.75c1.52,0,2.75-1.23,2.75-2.75C84.36,22.71,84.22,22.22,83.97,21.81z"/>
<path class="st11" d="M41.35,65.08l-12.08-0.02l-0.5,0L16.7,65.05c0,0-1.48,0.51-1.48,2.33s2.85,14.27,2.85,14.27
	s0.57,4.15,3.97,4.16c2.66,0,5.58,0.01,6.72,0.01c0.31,0,0.5,0,0.5,0c1.14,0,4.06,0.01,6.72,0.01c3.4,0,3.98-4.15,3.98-4.15
	s2.88-12.45,2.88-14.27C42.83,65.59,41.35,65.08,41.35,65.08z"/>
<path class="st11" d="M43.26,69.6c-0.25,0-0.49,0.02-0.73,0.05l-0.62,2.87c0.42-0.17,0.87-0.27,1.35-0.27
	c1.96,0,3.54,1.59,3.54,3.55c0,1.96-1.59,3.54-3.55,3.54c-1.02,0-1.93-0.44-2.58-1.13l-0.63,2.88c0.93,0.57,2.03,0.9,3.2,0.9
	c3.42,0,6.2-2.77,6.2-6.19C49.45,72.38,46.68,69.6,43.26,69.6z"/>
<path class="st11" d="M94.73,52.08l-12.08-0.02l-0.5,0l-12.08-0.02c0,0-1.48,0.51-1.48,2.33c0,1.82,2.85,14.27,2.85,14.27
	s0.57,4.15,3.97,4.16c2.66,0,5.58,0.01,6.72,0.01c0.31,0,0.5,0,0.5,0c1.14,0,4.06,0.01,6.72,0.01c3.4,0,3.98-4.15,3.98-4.15
	s2.88-12.45,2.88-14.27S94.73,52.08,94.73,52.08z"/>
<path class="st11" d="M96.64,56.59c-0.25,0-0.49,0.02-0.73,0.05l-0.62,2.87c0.42-0.17,0.87-0.27,1.35-0.27
	c1.96,0,3.54,1.59,3.54,3.55c0,1.96-1.59,3.54-3.55,3.54c-1.02,0-1.93-0.44-2.58-1.13l-0.63,2.88c0.93,0.57,2.03,0.9,3.2,0.9
	c3.42,0,6.2-2.77,6.2-6.19C102.83,59.37,100.06,56.6,96.64,56.59z"/>
<path class="st11" d="M94.7,76.13l-12.08-0.02l-0.5,0L70.05,76.1c0,0-1.48,0.51-1.48,2.33s2.85,14.27,2.85,14.27
	s0.57,4.15,3.97,4.16c2.66,0,5.58,0.01,6.72,0.01c0.31,0,0.5,0,0.5,0c1.14,0,4.06,0.01,6.72,0.01c3.4,0,3.98-4.15,3.98-4.15
	s2.88-12.45,2.88-14.27C96.18,76.65,94.7,76.13,94.7,76.13z"/>
<path class="st11" d="M96.6,80.65c-0.25,0-0.49,0.02-0.73,0.05l-0.62,2.87c0.42-0.17,0.87-0.27,1.35-0.27
	c1.96,0,3.54,1.59,3.54,3.55c0,1.96-1.59,3.54-3.55,3.54c-1.02,0-1.93-0.44-2.58-1.13l-0.63,2.88c0.93,0.57,2.03,0.9,3.2,0.9
	c3.42,0,6.2-2.77,6.2-6.19C102.8,83.43,100.03,80.65,96.6,80.65z"/>
<line class="st11" x1="56.77" y1="55.38" x2="56.77" y2="69.56"/>
<line class="st11" x1="49.69" y1="62.24" x2="63.86" y2="62.24"/>
</svg>
