<?xml version="1.0" encoding="utf-8"?>
<!-- Generator: Adobe Illustrator 23.0.4, SVG Export Plug-In . SVG Version: 6.00 Build 0)  -->
<svg version="1.1" id="Layer_1" xmlns="http://www.w3.org/2000/svg" xmlns:xlink="http://www.w3.org/1999/xlink" x="0px" y="0px"
	 viewBox="0 0 113.39 113.39" style="enable-background:new 0 0 113.39 113.39;" xml:space="preserve">
<style type="text/css">
	.st0{fill:none;stroke:#000000;stroke-width:2;stroke-miterlimit:10;}
	.st1{fill:none;stroke:#000000;stroke-width:2;stroke-linecap:round;stroke-miterlimit:10;}
	.st2{fill:#FFFFFF;stroke:#000000;stroke-width:2;stroke-linecap:round;stroke-miterlimit:10;}
	.st3{fill:#FFFFFF;stroke:#000000;stroke-width:2;stroke-miterlimit:10;}
	.st4{fill:#FFFFFF;}
	.st5{fill:#FFFFFF;stroke:#050000;stroke-width:2;stroke-miterlimit:10;}
	.st6{fill:#FFFFFF;stroke:#000000;stroke-width:2;stroke-linecap:round;stroke-linejoin:bevel;stroke-miterlimit:10;}
	.st7{fill:none;stroke:#000000;stroke-linecap:round;stroke-miterlimit:10;}
	.st8{fill:none;stroke:#000000;stroke-linecap:round;stroke-miterlimit:10;stroke-dasharray:1.9526,3.9052;}
	.st9{fill:none;stroke:#050000;stroke-width:2;stroke-linejoin:round;stroke-miterlimit:10;}
	.st10{fill:#FFFFFF;stroke:#050000;stroke-width:2;stroke-linecap:round;stroke-miterlimit:10;}
	.st11{fill:none;stroke:#050000;stroke-width:2;stroke-miterlimit:10;}
	.st12{fill:#FFFFFF;stroke:#050000;stroke-width:2;stroke-linejoin:round;stroke-miterlimit:10;}
</style>
<path class="st1" d="M97.89,37.15l-0.55,55.16c0,0-2.04,5.42-6.95,5.37c-2.54-0.03-12.47-0.13-21.43-0.22
	c-9.67-0.1-43.98-0.44-46.84-0.47c-4.91-0.05-6.84-5.51-6.84-5.51l0.55-55.16"/>
<polyline class="st1" points="104.69,37.22 53.71,36.7 60.01,36.77 9.04,36.25 "/>
<path class="st1" d="M15.74,46.03c2.68-1.76,6.52-3.59,10.74-2.94c4.78,0.73,5.84,3.98,10.2,4.03c4.71,0.04,5.99-3.72,10.94-4.25
	c4.67-0.5,5.21,3.41,10.21,3.59c5.37,0.19,6.4-3.76,11.58-3.37c4.63,0.35,4.84,3.59,9.33,3.8c4.87,0.22,6.47-3.5,11.37-3.37
	c3.31,0.08,5.97,1.87,7.68,3.35"/>
<path class="st0" d="M40.09,9.78c1.88,1.79,3.86,4.24,3.35,6.59c-0.75,3.5-6.41,3.89-7.2,7.34c-0.35,1.52,0.19,3.86,4.2,7.45"/>
<path class="st12" d="M97.65,60.52l-0.32,31.79c0,0-2.04,5.42-6.95,5.37c-2.54-0.03-12.47-0.13-21.43-0.22
	c-9.67-0.1-43.98-0.44-46.84-0.47c-4.91-0.05-6.84-5.51-6.84-5.51l0.27-26.89l0.19,0c0,0,0.05-3.09,2.72-3.09s2.95,3.09,2.95,3.09
	s0.98-2.81,3.8-2.11s2.11,3.66,2.11,3.66s-1.27-3.09,1.27-4.08c2.53-0.98,3.52,1.76,3.52,1.76s2.81-2.46,4.92-0.77
	c2.11,1.69,1.69,3.09,1.69,3.09s0.14-2.81,2.53-3.37s3.52,1.05,3.52,1.05s-1.83-2.88,1.27-4.43c3.09-1.55,4.08,1.27,4.08,1.27
	s1.97-2.81,4.22-1.12c2.25,1.69,0.77,3.66,0.77,3.66s1.62-3.37,4.57-1.55c2.95,1.83,1.69,3.66,1.69,3.66s0.28-3.09,2.53-3.66
	c2.25-0.56,3.94,1.55,3.94,1.55s-0.98-1.97,1.97-2.81c2.95-0.84,2.95,1.55,2.95,1.55s1.69-2.11,3.94-0.84
	c2.25,1.27,1.03,3.66,1.03,3.66s1.08-3.09,3.68-1.27c2.6,1.83,1.62,3.53,1.62,3.53s-0.14-2.4,1.97-3.25
	c2.11-0.84,3.52,1.69,3.52,1.69s-1.55-3.66,1.97-4.22c3.52-0.56,3.66,1.74,3.66,1.74s0.21-4.32,3.54-3.17"/>
<path class="st0" d="M59.03,9.97c1.88,1.79,3.86,4.24,3.35,6.59c-0.75,3.5-6.41,3.89-7.2,7.34c-0.35,1.52,0.19,3.86,4.2,7.45"/>
<path class="st0" d="M77.96,10.16c1.88,1.79,3.86,4.24,3.35,6.59c-0.75,3.5-6.41,3.89-7.2,7.34c-0.35,1.52,0.19,3.86,4.2,7.45"/>
</svg>
